<svg width="21" height="24" viewBox="0 0 21 24" fill="none" xmlns="http://www.w3.org/2000/svg">
<path d="M20.25 1.50001H14.625L14.1844 0.623446C14.091 0.436046 13.9473 0.278409 13.7692 0.16827C13.5912 0.0581305 13.3859 -0.000141936 13.1766 8.21846e-06H7.81875C7.60986 -0.000794775 7.40498 0.0572604 7.22756 0.167522C7.05015 0.277784 6.90738 0.435793 6.81562 0.623446L6.375 1.50001H0.75C0.551087 1.50001 0.360322 1.57903 0.21967 1.71968C0.0790176 1.86033 0 2.0511 0 2.25001L0 3.75001C0 3.94892 0.0790176 4.13968 0.21967 4.28034C0.360322 4.42099 0.551087 4.50001 0.75 4.50001H20.25C20.4489 4.50001 20.6397 4.42099 20.7803 4.28034C20.921 4.13968 21 3.94892 21 3.75001V2.25001C21 2.0511 20.921 1.86033 20.7803 1.71968C20.6397 1.57903 20.4489 1.50001 20.25 1.50001ZM2.49375 21.8906C2.52952 22.4619 2.78164 22.998 3.19878 23.3899C3.61591 23.7817 4.16672 23.9999 4.73906 24H16.2609C16.8333 23.9999 17.3841 23.7817 17.8012 23.3899C18.2184 22.998 18.4705 22.4619 18.5062 21.8906L19.5 6.00001H1.5L2.49375 21.8906Z" fill="black"/>
</svg>
