<?xml version="1.0" encoding="UTF-8"?>
<svg id="Layer_2" data-name="Layer 2" xmlns="http://www.w3.org/2000/svg" viewBox="0 0 79.47 91.59">
  <defs>
    <style>
      .cls-1 {
        fill: #755948;
      }

      .cls-2 {
        fill: #74553d;
      }

      .cls-3 {
        fill: #603d2f;
      }
    </style>
  </defs>
  <g id="Layer_1-2" data-name="Layer 1">
    <g id="_로고" data-name="로고">
      <g>
        <g>
          <g>
            <path class="cls-3" d="M44.63,5.1s-.08,0-.12-.02c-.27-.07-.43-.34-.36-.61,.21-.85,.61-2.43,.1-3.25-.1-.16-.19-.23-.24-.23-.12,0-.42,.22-.72,.7-.03,.27-.15,.55-.27,.83-.09,.21-.19,.46-.21,.61-.02,.17-.12,.31-.27,.39-.15,.08-.32,.08-.47,0-1.07-.58-2.28-.96-3.5-1.09-.4-.04-.81-.04-1.21,.01-.67,.08-2.25,.28-2.88,.73l-.14,.1c-.14,.1-.16,.11-.34,.27-.21,.18-.52,.16-.71-.04-.18-.21-.16-.52,.04-.71,.21-.19,.27-.23,.43-.34l.14-.1c.73-.52,2.03-.74,3.33-.91,.48-.06,.96-.06,1.44-.01,1.15,.12,2.29,.44,3.33,.93,.03-.07,.06-.14,.09-.22,.08-.2,.2-.48,.2-.6,0-.09,.02-.17,.07-.25,.28-.48,.86-1.29,1.62-1.3h.02c.3,0,.73,.13,1.09,.71,.73,1.18,.28,2.95,.01,4.01-.06,.23-.26,.38-.48,.38Z"/>
            <path class="cls-3" d="M30.44,5.28c-.25,0-.46-.19-.5-.44-.02-.17-.14-.34-.29-.53-.24-.32-.44-.62-.6-.93-.16-.3-.52-1-.24-1.64,.07-.15,.17-.29,.3-.4,.37-.31,.9-.29,1.18-.27,.37,.02,.73,.1,1.05,.26,.5,.23,.94,.63,1.27,1.14l.1,.15c.25,.37,.47,.69,.54,.91,.09,.26-.05,.55-.31,.64-.26,.09-.55-.05-.64-.31-.04-.12-.32-.52-.42-.68-.05-.07-.08-.12-.11-.17-.24-.36-.53-.63-.86-.78-.2-.09-.43-.15-.67-.16-.33-.02-.45,.01-.49,.04-.01,0-.02,.02-.03,.03-.06,.13,.01,.39,.21,.77,.13,.25,.3,.51,.51,.79,.22,.29,.44,.6,.49,1.02,.03,.27-.16,.52-.43,.56-.02,0-.04,0-.06,0Z"/>
            <path class="cls-3" d="M37.49,28.52c-1.47,0-2.94-.3-4.36-.89-1.14-.47-2.26-1.14-3.34-1.98-.39-.31-.8-.65-1.19-1.01-.56-.51-1.12-1.03-1.58-1.62-.34-.43-.63-.95-.88-1.59-.58-1.45-.88-2.99-.89-4.45,0-.94,.17-1.9,.35-2.79,.19-.94,.44-1.85,.75-2.72,.28-.77,.57-1.44,.9-2.04,.23-.42,.55-1.01,1.01-1.42,.88-.8,1.19-2.11,1.19-2.13,.06-.27,.33-.44,.6-.38,.27,.06,.44,.33,.38,.6-.01,.07-.38,1.63-1.5,2.65-.33,.3-.6,.8-.8,1.16-.3,.55-.58,1.17-.84,1.9-.29,.82-.53,1.69-.71,2.58-.17,.85-.33,1.75-.33,2.6,0,1.34,.29,2.75,.82,4.08,.22,.55,.46,.99,.74,1.35,.42,.53,.94,1.02,1.45,1.48,.4,.36,.78,.69,1.15,.98,1.01,.79,2.06,1.41,3.11,1.85,1.35,.56,2.74,.84,4.14,.81,.33,0,.66-.03,.99-.06,5.14-.58,6.45-2.48,7.72-4.32,.12-.18,.24-.35,.36-.52,.81-1.13,1.28-2.49,1.68-3.8,.25-.84,.51-1.67,.58-2.48,.05-.5,.05-1.04,.02-1.65-.08-1.44-.33-2.63-.75-3.64-.15-.36-.32-.67-.49-.92-.18-.25-.41-.46-.65-.67l-.1-.09c-.61-.55-1.16-1.17-1.63-1.86-.38-.55-.64-1.01-.82-1.46-.1-.26,.02-.55,.27-.65,.26-.1,.55,.02,.65,.27,.16,.38,.39,.79,.72,1.28,.42,.62,.92,1.19,1.47,1.68l.1,.09c.28,.25,.56,.5,.8,.84,.22,.31,.42,.68,.6,1.11,.47,1.12,.74,2.42,.83,3.97,.04,.66,.03,1.25-.02,1.8-.08,.92-.35,1.8-.61,2.65-.43,1.42-.95,2.88-1.84,4.13-.12,.17-.24,.34-.35,.51-1.33,1.93-2.84,4.11-8.43,4.74-.36,.04-.73,.06-1.09,.07-.06,0-.11,0-.17,0Z"/>
            <path class="cls-3" d="M44.24,7.49h-1.4c-.28,0-.5-.22-.5-.5s.22-.5,.5-.5h1.4c.28,0,.5,.22,.5,.5s-.22,.5-.5,.5Z"/>
            <path class="cls-3" d="M32.8,7.97h-1.89c-.28,0-.5-.22-.5-.5s.22-.5,.5-.5h1.89c.28,0,.5,.22,.5,.5s-.22,.5-.5,.5Z"/>
            <path class="cls-1" d="M38.17,7.4s2.99,.99,1.46,3.14-2.94-.02-3.42-1.17,1.05-2.27,1.97-1.97Z"/>
            <path class="cls-2" d="M38.28,11.96c-.06,0-.12,0-.18,0-1.32-.14-2.14-1.86-2.36-2.38-.27-.63-.12-1.35,.4-1.92,.6-.65,1.49-.95,2.18-.73,0,0,0,0,0,0,.18,.06,1.73,.6,2.14,1.85,.22,.66,.07,1.35-.43,2.06-.53,.75-1.12,1.13-1.75,1.13Zm-.44-4.11c-.3,0-.69,.19-.96,.48-.15,.16-.37,.49-.22,.85,.34,.81,.97,1.71,1.55,1.78,.31,.03,.65-.2,1.01-.7,.31-.44,.41-.82,.3-1.16-.21-.65-1.16-1.1-1.5-1.21-.05-.02-.11-.02-.17-.02Z"/>
            <path class="cls-3" d="M38.32,12.01c-.97,0-1.74-1.02-1.83-1.14-.14-.2-.13-.47,.05-.65,.17-.18,.44-.2,.64-.06,1.15,.81,2.17-.11,2.22-.15,.16-.15,.4-.18,.59-.07,.19,.11,.29,.33,.24,.54-.08,.38-.79,1.17-1.66,1.49-.04,.02-.09,.03-.14,.03-.03,0-.07,0-.1,0Z"/>
            <path class="cls-3" d="M39.73,10.38s-1.35,1.24-2.84,.2c0,0,.73,.99,1.49,.93,.75-.28,1.31-.96,1.35-1.13Z"/>
            <path class="cls-3" d="M38.27,19.41c-.06,0-.11,0-.17-.03-.26-.09-.4-.38-.3-.64,1.09-3.09,.04-7.59,.03-7.64-.06-.27,.1-.54,.37-.6,.27-.07,.54,.1,.6,.37,.05,.2,1.14,4.83-.06,8.2-.07,.21-.27,.33-.47,.33Z"/>
          </g>
          <path class="cls-3" d="M20.18,35.79c-.05,0-.11,0-.16-.03-.26-.09-.4-.38-.31-.64,1.11-3.19,4.31-6.42,6.93-8.38,1.17-.87,2.35-1.31,2.4-1.33,.26-.1,.55,.04,.64,.3,.1,.26-.04,.55-.29,.64-.01,0-1.11,.42-2.15,1.2-2.39,1.78-5.55,4.92-6.59,7.91-.07,.21-.27,.34-.47,.34Z"/>
          <path class="cls-3" d="M20.19,42.14c-.76,0-1.62-.51-2.19-1.08-.82-.82-1.18-1.79-.99-2.68,.27-1.25,1.09-2.38,2.1-2.89,.81-.41,1.69-.42,2.56-.04,.71,.32,1.09,.75,1.13,1.29,.02,.34-.11,.66-.29,.93,.22,.06,.42,.16,.57,.31,.47,.43,.41,1.01,.4,1.08,0,.07-.03,.14-.07,.2-.36,.59-.83,.94-1.4,1.05-.92,.18-1.7-.36-1.79-.42-.22-.16-.27-.47-.11-.7,.16-.22,.47-.27,.7-.11,.02,.01,.52,.35,1.01,.25,.25-.05,.47-.21,.66-.48,0-.04-.03-.1-.08-.14-.06-.05-.31-.2-1.09-.03-.24,.05-.48-.07-.57-.3-.09-.23,0-.49,.2-.61,.42-.26,.88-.72,.86-.96,0-.13-.21-.3-.54-.44-.59-.26-1.17-.26-1.7,.01-.73,.37-1.36,1.26-1.57,2.21-.12,.54,.15,1.2,.71,1.76,.53,.52,1.14,.79,1.49,.79,0-.04,.01-.1,0-.2-.02-.28,.18-.52,.45-.54,.28-.02,.52,.18,.54,.45,.07,.83-.39,1.17-.67,1.25-.11,.02-.22,.04-.34,.04Z"/>
          <path class="cls-3" d="M31.76,51.47c-.22,0-.42-.15-.48-.37-.23-.86,.31-1.89,.37-2.01l3.12-5.89c.1-.18,.3-.29,.5-.26,.4,.05,.57-.04,.6-.09,.03-.06-.03-.32-.44-.65-.69-.55-1.49-.22-1.65-.14l-5.67,4.29c-.22,.17-.53,.12-.7-.1-.17-.22-.12-.53,.1-.7l5.71-4.32s.04-.03,.06-.04c.06-.03,1.5-.79,2.78,.22,.7,.55,.98,1.25,.74,1.82-.19,.46-.66,.71-1.29,.72l-2.97,5.61c-.16,.3-.38,.92-.29,1.28,.07,.27-.09,.54-.35,.61-.04,.01-.09,.02-.13,.02Z"/>
          <path class="cls-3" d="M30.17,50.7c-1.38,0-2.45-.34-3.2-1.02-1.12-1.02-1.05-2.41-1.05-2.47,.02-.28,.25-.48,.53-.47,.27,.02,.48,.25,.47,.53,0,.05-.04,.99,.73,1.68,.79,.7,2.19,.91,4.07,.61,.27-.04,.53,.14,.57,.41,.04,.27-.14,.53-.41,.57-.62,.1-1.19,.15-1.72,.15Z"/>
          <path class="cls-3" d="M31.28,52.64c-8.83,0-13.08-5.42-13.26-5.66-.17-.22-.13-.53,.09-.7,.22-.17,.53-.13,.7,.09,.04,.06,4.4,5.58,13.25,5.25,.28-.01,.51,.21,.52,.48,.01,.28-.21,.51-.48,.52-.28,.01-.55,.02-.82,.02Z"/>
          <path class="cls-3" d="M32.34,38.02c-5.54,0-8.87-2.54-9.02-2.66-.22-.17-.26-.48-.09-.7,.17-.22,.48-.26,.7-.09h0s3.81,2.89,9.84,2.39c.28-.02,.52,.18,.54,.46s-.18,.52-.46,.54c-.52,.04-1.03,.06-1.51,.06Z"/>
          <path class="cls-3" d="M18.02,46.46c-.08,0-.15-.02-.23-.05-.25-.13-.34-.43-.22-.67l6.1-11.96c.35-.69,.99-.93,1.31-.96,.13-.01,.26,.02,.36,.1,.04,.03,4.19,3.22,8.61,1.37,.16-.07,.35-.05,.49,.06s.22,.28,.2,.46l-.66,5.56c-.03,.27-.28,.47-.56,.44-.27-.03-.47-.28-.44-.56l.56-4.76c-4.11,1.27-7.71-1-8.62-1.64-.11,.05-.27,.16-.38,.37l-6.1,11.96c-.09,.17-.26,.27-.45,.27Z"/>
          <path class="cls-3" d="M33.65,34.81s-.17-.75-2.07-1.46c-.26-.1-.39-.38-.29-.64,.1-.26,.38-.39,.64-.29,2.5,.93,2.7,2.08,2.72,2.3l-1,.07s0,.01,0,.03Z"/>
          <path class="cls-3" d="M29.25,32.58s-.06,0-.09,0c-1.36-.24-3.72,0-3.75,0-.27,.03-.52-.17-.55-.44-.03-.27,.17-.52,.44-.55,.1-.01,2.53-.26,4.03,0,.27,.05,.45,.31,.4,.58-.04,.24-.25,.41-.49,.41Z"/>
          <path class="cls-3" d="M30.64,31.15s-4.21,1.3-.91,2.46c0,0,1.93,1,2.4-1.36,0,0,.44-1.02-1.49-1.09Z"/>
          <path class="cls-3" d="M49.52,47.75s-.07,0-.11-.01c-.27-.06-.44-.33-.38-.6,2.44-10.7-3.09-20.71-3.14-20.81-.14-.24-.05-.55,.19-.68,.24-.13,.55-.05,.68,.19,.06,.1,5.77,10.45,3.24,21.52-.05,.23-.26,.39-.49,.39Z"/>
          <path class="cls-3" d="M26.29,32.47c-.08,0-.16-.02-.24-.06-.24-.13-.33-.43-.2-.68,1.44-2.67,2.93-4.29,3-4.36,.19-.2,.5-.21,.71-.03,.2,.19,.21,.5,.03,.71-.01,.02-1.47,1.6-2.85,4.16-.09,.17-.26,.26-.44,.26Z"/>
          <path class="cls-3" d="M51.47,43.38c-.09,0-.18,0-.28-.02-.27-.04-.46-.3-.42-.57,.04-.27,.3-.46,.57-.42,.5,.08,.86-.38,1.28-1.16,.42-.79,.69-1.66,.79-2.53,.18-1.53-.15-3.17-.97-4.87-.43-.88-1-1.67-1.61-2.5-.31-.42-.63-.86-.93-1.31-.11-.17-.22-.35-.32-.54-.2-.35-.41-.72-.67-.95-.21-.18-.23-.5-.05-.71s.5-.23,.71-.05c.39,.34,.65,.8,.88,1.21,.1,.17,.19,.33,.29,.48,.28,.43,.6,.86,.9,1.27,.61,.83,1.24,1.68,1.71,2.65,.91,1.87,1.27,3.7,1.07,5.42-.12,1.01-.42,1.98-.91,2.88-.3,.57-.91,1.7-2.03,1.7Z"/>
          <path class="cls-3" d="M47.06,62.86c-2.7,0-4.92-1.35-5.61-2.3-1.05-1.45-1.08-6.65-1.08-7.24,0-.28,.22-.5,.5-.5s.5,.22,.5,.5c0,2.1,.24,5.75,.89,6.65,.91,1.26,5.05,3.31,9,.49,.22-.16,.54-.11,.7,.12,.16,.22,.11,.54-.12,.7-1.62,1.16-3.28,1.58-4.79,1.58Z"/>
          <path class="cls-3" d="M51.97,61.15c-.18,0-.33-.15-.33-.33v-1.85c0-.11,.06-.22,.15-.28,.1-.06,.22-.07,.32-.02,.02,0,1.93,.88,4.39-.09,.08-.77,.35-3.61,.38-5.01-.52-.17-1.88-.56-2.77-.27-.1,.03-.21,.02-.3-.05-.09-.06-.14-.16-.14-.27v-3.69l-2.17-.24c-.18-.02-.31-.19-.29-.37,.02-.18,.18-.32,.37-.29l2.47,.28c.17,.02,.3,.16,.3,.33v3.57c1.3-.19,2.92,.43,2.99,.46,.13,.05,.21,.17,.21,.31,0,1.51-.39,5.35-.41,5.51-.01,.12-.09,.23-.2,.27-2.09,.89-3.84,.57-4.64,.33v1.38c0,.18-.15,.33-.33,.33Z"/>
          <path class="cls-3" d="M43.97,50.32s-.03,0-.05,0l-1.46-.22c-.15-.02-.27-.15-.28-.3,0-.06-.1-1.41,1.22-2.37,1.28-.93,6.28,.38,6.85,.53,.18,.05,.28,.23,.24,.41-.05,.18-.23,.28-.41,.24-2.02-.54-5.51-1.19-6.28-.63-.71,.51-.89,1.16-.94,1.52l1.16,.18c.18,.03,.31,.2,.28,.38-.03,.17-.17,.28-.33,.28Z"/>
          <path class="cls-3" d="M39.49,53.96s-.02,0-.03,0c-.18-.02-.32-.18-.3-.36l.38-4.37c.01-.17,.16-.3,.33-.3h2.7c.18,0,.33,.15,.33,.33s-.15,.33-.33,.33h-2.39l-.35,4.07c-.01,.17-.16,.3-.33,.3Z"/>
          <path class="cls-3" d="M46.42,55.45c-2.4,0-3.69-1.07-3.97-1.33l-2.96,.1c-.11,0-.17-.07-.17-.16,0-.09,.07-.17,.16-.17l3.03-.1s.09,.02,.13,.05c.03,.03,2.68,2.66,8.17,.24,.02,0,.03-.01,.05-.01l1.67-.16v-.05c0-.09,.07-.17,.17-.17h1.03l.13-.75c.02-.09,.1-.15,.19-.14,.09,.02,.15,.1,.14,.19l-.15,.88c-.01,.08-.08,.14-.16,.14h-1v.04c0,.09-.07,.16-.15,.17l-1.79,.17c-1.79,.78-3.28,1.06-4.5,1.06Z"/>
          <path class="cls-3" d="M47.16,53.17c-2.66,0-5.31-.4-5.9-1.15-.32-.41-.41-.77-.26-1.05,.29-.53,1.33-.46,1.54-.44,.14,.01,.24,.14,.22,.27-.01,.14-.13,.24-.27,.22-.43-.04-.96,.02-1.05,.18-.04,.06,0,.23,.21,.5,.86,1.1,8.89,1.43,10.85,.1,.39-.27,.41-.39,.41-.39-.1-.19-1.19-.33-2.28-.29-.08,0-.16-.04-.21-.1-.05-.07-.06-.16-.03-.23,0,0,.12-.34-.08-.6-.21-.28-.73-.4-1.49-.35-.13,0-.26-.1-.27-.23,0-.14,.1-.26,.23-.27,.95-.06,1.61,.12,1.93,.55,.18,.25,.22,.52,.21,.73,.85-.01,2.27,.06,2.47,.64,.15,.45-.42,.83-.6,.96-.94,.64-3.28,.95-5.62,.95Z"/>
          <path class="cls-3" d="M46.66,48.71c-.09,0-2.56-.17-3.01,1.05s4.78,1.42,5.57,.88,.31-1.79-2.56-1.93Z"/>
          <g>
            <path class="cls-3" d="M57.13,54.05c-.15-.12,.17-.45-.02-.49-.49-.09-2.51-.27-3-.35-.49-.09,.09,.69-.41,.69-.54,0-.37-.11-.89,.05-.28,.09-.3,.18-.68,.27-.03,.14-.48-.12-.59-.03-.06,.05-.44,.12-.52,.13-.43,.02-1.16,.46-1.59,.49-2.18,.18-3.36,.8-5.44,.11-.99-.33-1.34-1.21-2.98-.83,.13,.76,.21,1.52,.26,2.28,.05,.83,.06,1.66,.23,2.47,.18,.81,.55,1.61,1.2,2.12,.58,.46,1.31,.65,2.03,.81,.55,.12,1.1,.24,1.66,.24,1.09,0,2.21,.04,3.22-.37,.39-.16,.83-.32,1.22-.47,.16-.06,.39-.3,.51-.42,.76,.05,.5-1.05,.74-1.36-.45-.78,.08-.33,.39-.34s.61,.07,.92,.12c1.23,.2,1.73,.43,2.82-.17,.18-.1,.43-.11,.55-.28,.13-.19,.16-1,.2-1.23,.13-.76,.03-1.58,.16-2.34,.07-.41,.13-.95,0-1.11Zm-2.4,4.21c-.32,.18-1.36-.17-1.77,0s-.28-3.63,0-3.94,1.46-.18,1.77,0,.32,3.75,0,3.94Z"/>
            <path class="cls-3" d="M41.05,54.1s.04,0,.06,0c0-.02,0-.04,0-.06l-.05,.06Z"/>
          </g>
          <path class="cls-3" d="M22.85,53.76c-2.37,0-4.1-.18-5.91-.37-2.03-.21-4.12-.43-7.35-.43-6.53,0-8.91,.75-8.94,.76-.26,.09-.54-.06-.63-.32-.09-.26,.05-.54,.32-.63,.1-.03,2.52-.81,9.25-.81,3.28,0,5.4,.22,7.45,.44,2.13,.22,4.14,.44,7.22,.35,5.98-.17,11.6,.02,11.66,.02,.28,0,.49,.24,.48,.52,0,.28-.23,.49-.52,.48-.06,0-5.65-.19-11.6-.02-.51,.01-.99,.02-1.44,.02Z"/>
          <path class="cls-3" d="M19.21,54.74s-.03,0-.05,0c-8.55-.82-16.67-1.38-16.75-1.39-.28-.02-.48-.26-.46-.53,.02-.28,.26-.48,.53-.46,.08,0,8.21,.57,16.78,1.39,.27,.03,.48,.27,.45,.55-.02,.26-.24,.45-.5,.45Z"/>
          <path class="cls-3" d="M61.4,54.57c-.27,0-.49-.21-.5-.49,0-.19,.1-.36,.25-.45l-1.12-.03c-.28,0-.49-.24-.49-.51,0-.28,.24-.5,.51-.49l18.93,.44c.27,0,.49,.23,.49,.5s-.21,.49-.49,.5l-17.57,.52s-.01,0-.02,0Z"/>
          <path class="cls-3" d="M26.21,67.21c-.06,0-.13-.02-.18-.05-.02-.01-1.97-1.26-4.42-1.6-2.65-.36-5.6-3.28-5.72-3.4-.08-.08-.12-.21-.09-.32,.36-1.35,5.49-5.12,6.55-5.89,.16-.14,.96-.7,3.35-.7,.4,0,.77,.09,1.15,.18,.34,.08,.69,.16,1.11,.2,.23,.02,.49,.01,.76,0,.35-.01,.71-.02,1.03,.03,.3,.04,.57,.15,.8,.25,.17,.07,.33,.14,.49,.17,.2,.04,.41,.04,.62,.04,.27,0,.56,0,.82,.1,.58,.23,1.01,.6,1.13,.99,.1,.32,.17,.65-.02,.92-.28,.38-.84,.38-2.35,.37-.69,0-1.54,0-2.64,.02-1.94-.12-4.46-.54-5.98-.82,.93,.67,2.31,1.51,3.41,1.58,1.98,.12,5.76,.89,5.92,.92,.1,.02,.19,.09,.23,.18s.05,.2,0,.29c-.72,1.49-5.55,6.24-5.76,6.44-.06,.06-.15,.1-.23,.1Zm-9.69-5.37c.64,.6,3.09,2.77,5.18,3.06,2.13,.29,3.86,1.2,4.46,1.56,1.58-1.56,4.31-4.37,5.21-5.69-1.08-.21-3.83-.73-5.36-.82-1.77-.1-3.99-1.84-4.68-2.41-2.03,1.54-4.35,3.47-4.82,4.3Zm5.62-4.91c1.35,.26,4.31,.8,6.49,.93,1.07-.03,1.94-.03,2.63-.02,.9,0,1.68,0,1.81-.1,0,0,0-.06-.08-.32-.05-.15-.31-.4-.75-.58-.14-.05-.35-.05-.57-.05-.23,0-.5,0-.76-.06-.22-.05-.42-.13-.61-.21-.22-.09-.42-.18-.64-.21-.27-.04-.6-.03-.92-.02-.28,0-.57,.02-.84,0-.47-.04-.86-.13-1.21-.22-.36-.09-.67-.16-1-.16-2.27,0-2.91,.53-2.92,.54,0,0-.02,.02-.03,.03-.2,.14-.4,.29-.62,.45Z"/>
        </g>
        <path class="cls-3" d="M25.59,87.68c0,.37-.11,.75-.33,1.15s-.57,.76-1.05,1.1c-.15,.1-.33,.22-.55,.34s-.45,.24-.7,.37c-.25,.12-.51,.24-.79,.36-.28,.12-.55,.22-.84,.31-.28,.09-.56,.16-.82,.21-.27,.05-.52,.08-.76,.08-.12,0-.22,0-.31-.03-.09-.02-.16-.05-.24-.1-.07-.05-.14-.11-.21-.19-.07-.08-.14-.19-.22-.31-.12,.09-.25,.16-.39,.2-.14,.04-.27,.07-.41,.07h-.22s-.08-.01-.12-.04c-.04-.03-.07-.06-.1-.1s-.05-.09-.07-.14c-.02-.05-.02-.1-.02-.14,0-.26,.04-.51,.11-.75,.07-.24,.16-.48,.26-.72,.14-.44,.29-.9,.44-1.38,.15-.48,.29-.97,.43-1.45,.14-.48,.27-.96,.4-1.44s.24-.92,.35-1.34l.22-.9s0-.06,0-.13c0-.07-.01-.15-.02-.24,0-.08-.01-.16-.02-.24v-.1s.03-.13,.03-.13h0c.03-.09,.06-.19,.11-.31,.05-.12,.1-.23,.17-.33s.14-.19,.22-.26c.08-.07,.17-.1,.26-.1,.09,0,.2,0,.34,.02,.14,.01,.26,.02,.37,.02,.05,0,.1,0,.15,0,.05,0,.11-.02,.19-.04,.07-.02,.17-.05,.29-.09,.12-.04,.28-.09,.48-.16,.29-.1,.56-.19,.81-.26s.48-.13,.7-.17c.22-.04,.43-.08,.64-.1,.21-.02,.42-.03,.63-.03,.27,0,.54,.03,.79,.08,.26,.05,.48,.14,.68,.25,.2,.12,.36,.27,.48,.46,.12,.19,.18,.42,.18,.68,0,.46-.12,.87-.36,1.24s-.59,.71-1.03,1.02c-.44,.31-.98,.61-1.6,.88-.62,.27-1.31,.54-2.08,.8,.61,.09,1.13,.2,1.57,.33,.44,.13,.81,.27,1.1,.44,.29,.17,.5,.36,.64,.58,.14,.22,.21,.46,.21,.74Zm-2.63-.71c-.05-.01-.15-.03-.28-.05-.14-.03-.3-.05-.48-.08s-.38-.06-.59-.1-.41-.07-.6-.1-.37-.07-.52-.1c-.16-.03-.27-.06-.34-.08-.2,.63-.37,1.24-.51,1.82-.15,.58-.3,1.16-.45,1.75l.51,.05c.12,.01,.22,.02,.31,.03s.14,.01,.16,.01c.21-.02,.43-.06,.68-.12,.25-.06,.5-.13,.77-.22,.27-.09,.54-.2,.81-.32,.27-.12,.54-.25,.8-.39,.1-.06,.2-.14,.31-.22,.11-.09,.21-.18,.29-.29,.09-.11,.16-.22,.22-.34,.06-.12,.09-.24,.09-.36,0-.21-.11-.39-.32-.54-.22-.15-.5-.27-.84-.35Zm-2.45-1.79c.29-.09,.59-.2,.91-.33,.32-.13,.65-.26,.99-.41,.34-.15,.68-.31,1.03-.48,.35-.17,.7-.34,1.04-.51h0c.12-.07,.25-.15,.37-.24s.23-.2,.32-.31c.1-.11,.17-.23,.23-.35s.09-.24,.09-.36c0-.08-.02-.15-.05-.23-.04-.08-.09-.15-.17-.21s-.18-.11-.31-.15c-.13-.04-.28-.05-.47-.05-.26,0-.55,.03-.87,.1s-.64,.15-.94,.24c-.3,.1-.58,.21-.81,.32-.24,.12-.39,.23-.47,.34-.02,.03-.04,.08-.07,.17-.03,.09-.06,.18-.1,.29-.04,.11-.07,.21-.11,.31-.04,.1-.08,.17-.11,.22-.01,.05-.03,.13-.06,.24-.03,.11-.07,.23-.11,.38-.04,.14-.09,.3-.15,.48-.05,.18-.11,.36-.17,.55Z"/>
        <path class="cls-3" d="M34.07,91.24c-.11,0-.2-.02-.29-.06-.08-.04-.15-.1-.21-.16-.05-.07-.1-.14-.12-.23-.03-.09-.04-.18-.04-.26,0-.08,.02-.18,.06-.32s.09-.29,.16-.46c.06-.17,.14-.35,.21-.53,.08-.19,.15-.36,.22-.53s.13-.33,.19-.47c.05-.14,.09-.26,.11-.34,.02-.09,.05-.2,.08-.33s.07-.27,.1-.42,.08-.31,.12-.48c.04-.17,.08-.34,.12-.51-.07,.02-.16,.03-.27,.04-.11,.01-.22,.02-.34,.03-.17,.02-.34,.04-.5,.07s-.33,.07-.51,.1c-.17,.04-.35,.08-.54,.12-.19,.04-.38,.09-.6,.14-.31,.07-.62,.14-.93,.22-.31,.08-.63,.12-.97,.12-.1,0-.2-.03-.29-.08-.09-.05-.19-.09-.29-.12-.1,.17-.2,.34-.29,.53s-.18,.38-.26,.58c-.08,.2-.15,.39-.21,.59s-.12,.38-.16,.55c-.03,.09-.05,.21-.07,.36-.02,.15-.03,.3-.05,.45-.02,.15-.03,.3-.05,.44-.02,.14-.03,.25-.05,.33-.02,.08-.05,.15-.09,.23s-.1,.14-.17,.21-.14,.11-.22,.15c-.08,.04-.17,.06-.25,.06-.14,0-.26-.04-.35-.13-.09-.08-.16-.19-.22-.32-.05-.13-.09-.26-.11-.41-.02-.15-.03-.29-.03-.41,0-.31,.04-.64,.12-.98,.08-.34,.18-.68,.31-1.03,.13-.35,.29-.7,.46-1.05s.37-.71,.58-1.06c.17-.31,.38-.68,.63-1.09,.25-.41,.54-.84,.85-1.27,.31-.44,.65-.86,1.01-1.28,.36-.42,.74-.79,1.13-1.12s.79-.59,1.21-.79c.41-.2,.82-.3,1.23-.3,.43,0,.79,.08,1.07,.23,.29,.15,.51,.36,.68,.63s.29,.57,.36,.92c.07,.35,.1,.72,.1,1.11,0,.35-.02,.7-.07,1.07-.04,.37-.1,.72-.16,1.08-.06,.35-.13,.69-.21,1.01s-.14,.62-.21,.88l-.27,1.05s-.03,.09-.06,.19-.06,.21-.11,.34c-.04,.13-.09,.27-.15,.43-.05,.15-.11,.3-.16,.45-.05,.15-.11,.28-.15,.41-.05,.12-.09,.22-.13,.3h0c-.04,.13-.07,.26-.12,.4-.04,.14-.1,.26-.17,.38-.07,.11-.17,.2-.28,.27-.11,.07-.26,.1-.44,.1Zm.39-9.69c-.23,0-.46,.05-.69,.14s-.46,.22-.68,.38c-.22,.15-.44,.34-.65,.54-.21,.21-.41,.42-.6,.63-.19,.22-.36,.43-.53,.65-.17,.22-.31,.42-.45,.61-.02,.03-.05,.07-.08,.12-.03,.05-.07,.1-.1,.16s-.07,.12-.1,.19-.06,.12-.08,.17h.8c.29,0,.62-.02,.99-.06,.37-.04,.74-.09,1.1-.15,.36-.06,.7-.11,1-.17,.3-.06,.53-.1,.69-.14,.02-.07,.04-.16,.06-.27,.02-.11,.03-.24,.05-.38,.02-.14,.03-.29,.03-.44,0-.16,.01-.32,.01-.48,0-.13,0-.29-.02-.46s-.04-.34-.09-.49c-.05-.15-.13-.29-.24-.39-.11-.11-.25-.16-.44-.16Z"/>
        <path class="cls-3" d="M38.4,90.18c.29-1.18,.6-2.35,.91-3.5,.31-1.15,.62-2.32,.91-3.5,.04-.15,.07-.3,.11-.44,.04-.14,.07-.28,.1-.42s.06-.28,.07-.42c.02-.14,.03-.29,.03-.44,0-.12,0-.23-.02-.32s-.02-.21-.02-.33,.02-.24,.05-.38c.08-.31,.19-.55,.33-.7,.14-.15,.36-.23,.65-.23,.12,0,.23,.01,.34,.03,.11,.02,.22,.05,.33,.08,.12,.04,.24,.07,.37,.09,.13,.03,.25,.04,.38,.04,.1,0,.2,0,.3-.02,.1-.01,.21-.02,.34-.03,.13-.01,.28-.02,.45-.03,.17-.01,.39-.02,.65-.02,.14,0,.31,0,.51,.02,.2,.01,.4,.03,.61,.07,.21,.04,.43,.09,.64,.16,.22,.07,.42,.16,.61,.28,.19,.12,.35,.26,.5,.44s.25,.38,.32,.62c.04,.12,.06,.23,.07,.32,.01,.1,.02,.19,.02,.29,0,.31-.08,.62-.24,.93-.18,.35-.42,.67-.73,.97-.31,.3-.66,.59-1.07,.86-.16,.11-.35,.22-.56,.34-.21,.12-.42,.23-.62,.33-.2,.11-.39,.2-.55,.29s-.27,.15-.34,.2c.18,.09,.36,.18,.54,.27,.18,.1,.36,.21,.55,.34,.19,.13,.38,.3,.57,.49,.19,.19,.39,.42,.6,.7,.21,.28,.43,.6,.65,.98,.22,.38,.46,.82,.7,1.33,.06,.12,.09,.26,.09,.39,0,.11-.02,.22-.07,.32-.04,.11-.1,.21-.18,.29-.07,.09-.16,.16-.27,.21s-.21,.08-.33,.08c-.18,0-.33-.07-.45-.2-.12-.13-.23-.31-.34-.53-.11-.22-.22-.46-.34-.73-.12-.27-.26-.55-.43-.83-.19-.3-.39-.58-.62-.85-.22-.27-.46-.5-.72-.7-.25-.2-.51-.35-.78-.47-.27-.12-.54-.17-.8-.17h-.12c-.16,0-.3,.01-.43,.04s-.25,.05-.37,.07c-.16-.06-.28-.15-.35-.28-.07-.13-.11-.27-.11-.43v-.11l-.62,2.44c-.02,.08-.05,.18-.08,.32s-.08,.28-.12,.44c-.05,.16-.09,.33-.14,.5-.05,.18-.1,.34-.14,.5-.04,.15-.08,.29-.12,.42-.03,.12-.06,.22-.07,.28-.07,.13-.16,.23-.27,.31-.11,.07-.23,.11-.36,.11-.23,0-.38-.07-.47-.21s-.13-.3-.13-.48c0-.07,0-.15,.02-.22,.01-.07,.02-.15,.04-.21Zm3.8-8.73c-.03,.1-.08,.25-.14,.45s-.12,.42-.2,.67c-.07,.25-.15,.51-.23,.8-.08,.28-.17,.57-.25,.85-.08,.29-.16,.56-.24,.83s-.15,.51-.21,.72c.1-.13,.26-.25,.46-.36s.44-.21,.7-.3c.2-.07,.45-.17,.74-.31s.6-.28,.92-.45,.64-.35,.97-.55c.32-.2,.61-.4,.87-.61s.46-.42,.62-.63c.16-.21,.24-.41,.24-.61s-.07-.34-.2-.45c-.13-.11-.3-.19-.5-.25-.2-.06-.42-.09-.66-.11-.24-.02-.46-.03-.67-.03-.37,0-.74,.02-1.11,.07-.37,.05-.74,.14-1.11,.27Z"/>
        <path class="cls-3" d="M56.07,91.24c-.11,0-.2-.02-.29-.06-.08-.04-.15-.1-.21-.16-.05-.07-.1-.14-.12-.23-.03-.09-.04-.18-.04-.26,0-.08,.02-.18,.06-.32s.09-.29,.16-.46c.06-.17,.14-.35,.21-.53,.08-.19,.15-.36,.22-.53s.13-.33,.19-.47c.05-.14,.09-.26,.11-.34,.02-.09,.05-.2,.08-.33s.07-.27,.1-.42,.08-.31,.12-.48c.04-.17,.08-.34,.12-.51-.07,.02-.16,.03-.27,.04-.11,.01-.22,.02-.34,.03-.17,.02-.34,.04-.5,.07s-.33,.07-.51,.1c-.17,.04-.35,.08-.54,.12-.19,.04-.38,.09-.6,.14-.31,.07-.62,.14-.93,.22-.31,.08-.63,.12-.97,.12-.1,0-.2-.03-.29-.08-.09-.05-.19-.09-.29-.12-.1,.17-.2,.34-.29,.53s-.18,.38-.26,.58c-.08,.2-.15,.39-.21,.59s-.12,.38-.16,.55c-.03,.09-.05,.21-.07,.36-.02,.15-.03,.3-.05,.45-.02,.15-.03,.3-.05,.44-.02,.14-.03,.25-.05,.33-.02,.08-.05,.15-.09,.23s-.1,.14-.17,.21-.14,.11-.22,.15c-.08,.04-.17,.06-.25,.06-.14,0-.26-.04-.35-.13-.09-.08-.16-.19-.22-.32-.05-.13-.09-.26-.11-.41-.02-.15-.03-.29-.03-.41,0-.31,.04-.64,.12-.98,.08-.34,.18-.68,.31-1.03,.13-.35,.29-.7,.46-1.05s.37-.71,.58-1.06c.17-.31,.38-.68,.63-1.09,.25-.41,.54-.84,.85-1.27,.31-.44,.65-.86,1.01-1.28,.36-.42,.74-.79,1.13-1.12s.79-.59,1.21-.79c.41-.2,.82-.3,1.23-.3,.43,0,.79,.08,1.07,.23,.29,.15,.51,.36,.68,.63s.29,.57,.36,.92c.07,.35,.1,.72,.1,1.11,0,.35-.02,.7-.07,1.07-.04,.37-.1,.72-.16,1.08-.06,.35-.13,.69-.21,1.01s-.14,.62-.21,.88l-.27,1.05s-.03,.09-.06,.19-.06,.21-.11,.34c-.04,.13-.09,.27-.15,.43-.05,.15-.11,.3-.16,.45-.05,.15-.11,.28-.15,.41-.05,.12-.09,.22-.13,.3h0c-.04,.13-.07,.26-.12,.4-.04,.14-.1,.26-.17,.38-.07,.11-.17,.2-.28,.27-.11,.07-.26,.1-.44,.1Zm.39-9.69c-.23,0-.46,.05-.69,.14s-.46,.22-.68,.38c-.22,.15-.44,.34-.65,.54-.21,.21-.41,.42-.6,.63-.19,.22-.36,.43-.53,.65-.17,.22-.31,.42-.45,.61-.02,.03-.05,.07-.08,.12-.03,.05-.07,.1-.1,.16s-.07,.12-.1,.19-.06,.12-.08,.17h.8c.29,0,.62-.02,.99-.06,.37-.04,.74-.09,1.1-.15,.36-.06,.7-.11,1-.17,.3-.06,.53-.1,.69-.14,.02-.07,.04-.16,.06-.27,.02-.11,.03-.24,.05-.38,.02-.14,.03-.29,.03-.44,0-.16,.01-.32,.01-.48,0-.13,0-.29-.02-.46s-.04-.34-.09-.49c-.05-.15-.13-.29-.24-.39-.11-.11-.25-.16-.44-.16Z"/>
        <path class="cls-3" d="M23.92,75.98c0-.15,.02-.32,.05-.51s.1-.38,.19-.56c.12-.25,.26-.49,.42-.72s.31-.45,.47-.64,.32-.37,.48-.52,.32-.27,.46-.36h0c.09-.05,.19-.11,.29-.18s.21-.12,.31-.17,.21-.1,.32-.13,.22-.05,.32-.05,.21,.02,.31,.07,.19,.1,.26,.18,.13,.17,.18,.27,.06,.21,.06,.32c0,.08,0,.14-.01,.19s-.02,.08-.04,.1-.04,.04-.07,.04-.06,0-.1,0c-.06,0-.1-.01-.13-.04s-.06-.05-.08-.09-.03-.07-.04-.12-.02-.08-.04-.12-.03-.07-.05-.09-.05-.04-.09-.04c-.1,0-.22,.02-.34,.07s-.24,.11-.37,.19-.25,.17-.38,.27-.25,.2-.36,.31-.22,.21-.32,.31-.18,.19-.25,.27c-.1,.13-.2,.27-.29,.4s-.16,.28-.22,.42-.11,.29-.14,.44-.05,.31-.05,.47c0,.12,.02,.23,.05,.33s.07,.17,.12,.24c.05,.08,.11,.13,.18,.16s.16,.04,.26,.04c.22,0,.43-.02,.61-.06s.37-.1,.54-.17,.34-.15,.5-.25,.33-.2,.51-.31h.1s.07,0,.1,.03,.07,.04,.09,.07,.05,.06,.07,.1,.03,.07,.03,.11c0,.09-.03,.17-.1,.26s-.15,.17-.26,.24-.22,.15-.36,.22-.26,.13-.39,.18-.25,.1-.36,.13-.2,.06-.27,.07c-.06,.01-.11,.03-.17,.04s-.12,.02-.19,.04-.16,.02-.26,.03-.23,0-.38,0c-.09,0-.18-.01-.26-.04s-.15-.07-.21-.11-.11-.08-.16-.13-.08-.08-.1-.11c-.15-.18-.27-.36-.34-.53s-.11-.37-.11-.57Z"/>
        <path class="cls-3" d="M35.59,77.69c-.05,0-.1-.01-.14-.03s-.08-.05-.1-.08-.05-.07-.06-.12-.02-.09-.02-.13c0-.04,.01-.09,.03-.16s.05-.15,.08-.23,.07-.18,.11-.27,.08-.18,.11-.27,.07-.17,.09-.24,.04-.13,.05-.17c.01-.05,.02-.1,.04-.17s.03-.14,.05-.21,.04-.16,.06-.24,.04-.17,.06-.26c-.04,0-.08,.01-.13,.02s-.11,.01-.17,.02c-.09,0-.17,.02-.25,.04s-.17,.03-.26,.05-.18,.04-.27,.06-.19,.04-.3,.07c-.16,.03-.31,.07-.47,.11s-.32,.06-.49,.06c-.05,0-.1-.01-.14-.04s-.09-.05-.15-.06c-.05,.08-.1,.17-.15,.27s-.09,.19-.13,.29-.07,.2-.11,.3-.06,.19-.08,.28c-.01,.05-.02,.11-.03,.18s-.02,.15-.03,.23-.02,.15-.02,.22-.02,.13-.02,.17c0,.04-.02,.08-.05,.12s-.05,.07-.09,.1-.07,.06-.11,.08-.08,.03-.12,.03c-.07,0-.13-.02-.18-.06s-.08-.1-.11-.16-.05-.13-.06-.21-.02-.14-.02-.21c0-.16,.02-.32,.06-.49s.09-.34,.16-.52,.14-.35,.23-.53,.19-.36,.29-.53c.09-.16,.19-.34,.32-.55s.27-.42,.43-.64,.33-.44,.51-.65,.37-.4,.57-.56,.4-.3,.61-.4,.42-.15,.62-.15c.22,0,.4,.04,.54,.12s.26,.18,.35,.32,.15,.29,.18,.46,.05,.36,.05,.56c0,.17-.01,.35-.03,.54s-.05,.37-.08,.54-.07,.35-.11,.51-.07,.31-.1,.45l-.14,.53s-.01,.05-.03,.09-.03,.1-.05,.17-.05,.14-.07,.21-.05,.15-.08,.23-.05,.14-.08,.21-.05,.11-.06,.15h0c-.02,.06-.04,.13-.06,.2s-.05,.13-.09,.19-.08,.1-.14,.14-.13,.05-.22,.05Zm.2-4.89c-.12,0-.23,.02-.35,.07s-.23,.11-.34,.19-.22,.17-.33,.27-.21,.21-.3,.32-.18,.22-.27,.33-.16,.21-.23,.31c-.01,.02-.02,.04-.04,.06s-.03,.05-.05,.08-.03,.06-.05,.09-.03,.06-.04,.09h.4c.15,0,.31-.01,.5-.03s.37-.05,.56-.07,.35-.06,.51-.09,.27-.05,.35-.07c.01-.03,.02-.08,.03-.14s.02-.12,.03-.19,.01-.15,.02-.22,0-.16,0-.24c0-.07,0-.15,0-.23s-.02-.17-.05-.25-.07-.14-.12-.2-.13-.08-.22-.08Z"/>
        <path class="cls-3" d="M43.08,73.43s-.05,.09-.08,.16-.07,.17-.1,.27-.07,.21-.11,.32-.07,.22-.1,.31-.06,.18-.08,.26-.03,.12-.04,.15c0,.03-.01,.07-.03,.13l-.04,.15c.29-.1,.58-.18,.87-.25s.57-.1,.86-.1c.04,0,.1,0,.18,0s.14,.01,.21,.03,.13,.04,.18,.08,.08,.09,.08,.16c0,0,0,.02,0,.05s-.01,.06-.02,.1-.03,.08-.06,.12-.06,.07-.11,.09c-.03,0-.06,0-.08,0h-.08c-.18,0-.37,.02-.56,.05s-.37,.08-.56,.13-.38,.12-.56,.2-.38,.16-.56,.24l-.39,1.71s-.03,.08-.06,.12-.07,.05-.11,.05h-.09c-.1,0-.17-.04-.21-.12s-.06-.18-.06-.31c0-.11,0-.22,.03-.35s.04-.25,.06-.37,.04-.23,.06-.33,.03-.17,.03-.23c-.03-.04-.06-.09-.09-.14s-.05-.11-.05-.18c0-.11,.03-.21,.09-.27s.14-.13,.24-.2c.01,0,.02-.02,.03-.04s.02-.04,.03-.07,.02-.05,.02-.08,.01-.05,.02-.07l.16-.58c.06-.23,.12-.43,.17-.6s.1-.32,.14-.46,.08-.26,.12-.37,.07-.21,.1-.31c.01-.03,.03-.08,.05-.14s.05-.12,.09-.18,.07-.11,.12-.16,.09-.07,.14-.07c.12,0,.2,0,.24,.03s.07,.04,.08,.08l.04,.09s.1-.01,.18-.03,.16-.03,.24-.05,.16-.04,.23-.05,.12-.03,.15-.04c.17-.05,.33-.09,.48-.12s.28-.06,.41-.08,.26-.04,.38-.05,.24-.02,.36-.02c.06,0,.11,0,.16,0s.09,.01,.13,.03,.06,.04,.08,.06,.03,.06,.03,.11c0,.02,0,.05-.02,.09s-.03,.07-.05,.11-.06,.07-.1,.1-.09,.05-.15,.07c-.02,0-.05,.01-.1,.02s-.1,.02-.16,.03-.13,.02-.2,.03-.13,.02-.2,.03c-.1,.02-.21,.05-.33,.08s-.25,.06-.39,.09-.27,.07-.4,.11-.26,.08-.38,.12-.23,.08-.32,.13-.17,.09-.22,.14Z"/>
        <path class="cls-3" d="M49.22,77.36c0-.09,.01-.19,.04-.29,.09-.35,.19-.7,.31-1.04s.23-.68,.32-1.01,.18-.62,.24-.85,.12-.43,.17-.59,.1-.31,.14-.43,.09-.24,.14-.36c.03-.07,.07-.14,.1-.22s.08-.15,.12-.21,.09-.12,.14-.16,.1-.06,.15-.06c.11,0,.19,.02,.24,.05s.09,.07,.1,.1l.04,.16s.09,0,.15-.02,.13-.02,.19-.04,.12-.03,.18-.04,.1-.02,.12-.04c.17-.05,.33-.09,.48-.12s.28-.06,.42-.08,.26-.04,.38-.05,.24-.02,.36-.02,.22,0,.29,.02,.14,.03,.18,.05,.07,.05,.09,.08,.03,.06,.03,.1c0,.03,0,.06-.03,.1s-.04,.07-.08,.1-.09,.06-.15,.08-.14,.04-.23,.05c-.02,0-.08,.01-.16,.03s-.18,.03-.28,.05-.19,.03-.28,.05-.15,.03-.18,.04h0s-.05,.01-.11,.03-.13,.04-.21,.06-.17,.05-.27,.08-.19,.06-.29,.08-.18,.05-.26,.08-.15,.04-.2,.06c-.16,.06-.28,.15-.37,.25s-.16,.22-.21,.35c-.01,.02-.03,.06-.05,.12s-.04,.12-.07,.19-.05,.15-.08,.23-.06,.16-.08,.23-.05,.14-.07,.2-.03,.1-.04,.13c0,.03-.01,.05-.02,.07s0,.04,0,.05c0,.02,0,.02,.01,.02,.04,0,.12-.02,.24-.05s.27-.08,.43-.13,.34-.11,.53-.17,.37-.12,.54-.17,.33-.1,.46-.13,.23-.05,.29-.05c.09,0,.15,.01,.18,.04s.05,.06,.05,.1c0,.09-.03,.18-.1,.25s-.15,.13-.25,.18c-.03,.02-.09,.04-.17,.07s-.18,.06-.27,.09-.19,.06-.28,.09-.15,.05-.19,.06c-.26,.1-.46,.18-.62,.24s-.29,.12-.39,.16-.18,.07-.23,.09-.1,.04-.15,.05-.1,.03-.15,.04-.13,.03-.23,.05c-.02,.05-.05,.14-.08,.25s-.06,.23-.09,.34-.05,.23-.07,.33-.03,.17-.03,.21c0,.05,0,.08,.02,.1s.03,.04,.05,.04,.04,.01,.05,.01h.04c.12,0,.28-.02,.45-.05s.35-.08,.52-.14c.16-.06,.31-.12,.43-.19s.24-.13,.35-.19,.21-.11,.32-.15,.22-.06,.34-.06c.03,0,.06,0,.09,0s.07,.01,.1,.03,.06,.03,.08,.06,.03,.05,.02,.09c-.01,.08-.05,.15-.11,.22s-.15,.14-.25,.21-.21,.13-.33,.2-.25,.12-.38,.18-.25,.11-.38,.15-.23,.09-.33,.12c-.24,.08-.47,.14-.7,.18s-.43,.06-.61,.06c-.2,0-.35-.04-.46-.11s-.16-.2-.16-.37Z"/>
      </g>
    </g>
  </g>
</svg>