<?xml version="1.0" encoding="UTF-8"?>
<svg id="Layer_2" data-name="Layer 2" xmlns="http://www.w3.org/2000/svg" viewBox="0 0 100 100">
  <defs>
    <style>
      .cls-1 {
        fill: #755948;
      }

      .cls-2 {
        fill: #74553d;
      }

      .cls-3 {
        fill: #603d2f;
      }

      .cls-4 {
        fill: none;
      }
    </style>
  </defs>
  <g id="Layer_1-2" data-name="Layer 1">
    <g id="_로고" data-name="로고">
      <g>
        <g>
          <path class="cls-3" d="M56.17,13.47s-.08,0-.12-.02c-.27-.07-.43-.34-.36-.61,.27-1.1,.78-3.15,.12-4.24-.1-.17-.26-.35-.42-.36-.26,0-.68,.4-1.03,.99-.04,.34-.19,.7-.33,1.05-.12,.3-.25,.6-.27,.81-.02,.17-.12,.31-.26,.39-.15,.08-.32,.08-.47,0-1.37-.75-2.91-1.24-4.47-1.41-.52-.06-1.05-.05-1.56,.02-.86,.11-2.87,.37-3.69,.96l-.18,.13c-.17,.12-.21,.15-.44,.36-.2,.18-.52,.16-.7-.04-.18-.21-.16-.52,.04-.71,.26-.24,.33-.28,.53-.43l.17-.12c.9-.65,2.52-.93,4.14-1.13,.59-.08,1.2-.08,1.79-.02,1.48,.16,2.95,.58,4.29,1.24,.05-.14,.11-.27,.16-.41,.12-.3,.26-.64,.26-.82,0-.09,.02-.17,.07-.25,.34-.59,1.03-1.57,1.93-1.59,0,0,.01,0,.02,0,.34,0,.84,.15,1.26,.84,.89,1.45,.33,3.68,0,5.01-.06,.23-.26,.38-.48,.38Z"/>
          <path class="cls-3" d="M38.27,13.7c-.25,0-.46-.18-.49-.44-.03-.25-.2-.49-.39-.75-.3-.4-.55-.78-.75-1.17-.19-.36-.63-1.21-.3-1.97,.08-.18,.19-.33,.34-.46,.43-.36,1.06-.33,1.39-.31,.45,.02,.88,.13,1.27,.31,.6,.29,1.14,.77,1.55,1.41,.03,.05,.08,.11,.13,.19,.31,.46,.58,.87,.67,1.13,.09,.26-.05,.55-.3,.64-.26,.09-.54-.05-.63-.31-.05-.16-.42-.69-.55-.89-.06-.08-.1-.16-.14-.21-.31-.48-.71-.84-1.14-1.05-.27-.13-.58-.2-.9-.22-.14,0-.58-.03-.71,.08-.03,.03-.06,.06-.07,.09-.14,.32,.16,.89,.27,1.11,.17,.33,.39,.67,.65,1.02,.26,.35,.53,.73,.59,1.23,.03,.27-.16,.52-.43,.56-.02,0-.04,0-.06,0Z"/>
          <path class="cls-3" d="M47.16,43.31c-1.84,0-3.67-.38-5.45-1.12-1.42-.6-2.83-1.44-4.19-2.5-.49-.39-1-.82-1.49-1.28l-.03-.03c-.67-.63-1.37-1.27-1.95-2.02-.42-.54-.78-1.19-1.1-2-.72-1.83-1.11-3.77-1.11-5.62,0-1.18,.22-2.4,.44-3.53,.23-1.19,.55-2.35,.94-3.45,.35-.98,.72-1.82,1.13-2.58,.29-.53,.69-1.26,1.24-1.77,1.15-1.05,1.54-2.76,1.55-2.78,.06-.27,.33-.44,.59-.38,.27,.06,.43,.33,.37,.6-.02,.08-.47,2.04-1.85,3.3-.44,.4-.78,1.04-1.04,1.51-.39,.71-.74,1.51-1.06,2.44-.37,1.05-.68,2.16-.9,3.31-.21,1.09-.42,2.24-.42,3.34,0,1.72,.36,3.54,1.04,5.25,.28,.71,.59,1.28,.95,1.75,.53,.69,1.2,1.31,1.84,1.9l.03,.03c.48,.44,.96,.86,1.43,1.23,1.29,1.01,2.62,1.81,3.96,2.37,1.72,.72,3.5,1.08,5.27,1.04,.42,0,.84-.03,1.26-.08,6.54-.75,8.22-3.2,9.84-5.56,.15-.22,.3-.44,.46-.66,1.03-1.45,1.64-3.21,2.14-4.89v-.03c.32-1.03,.64-2.1,.74-3.16,.06-.64,.07-1.34,.02-2.13-.1-1.85-.42-3.38-.96-4.69-.19-.47-.41-.87-.64-1.19-.23-.33-.53-.6-.85-.88l-.13-.12c-.76-.69-1.44-1.48-2.03-2.34-.47-.69-.79-1.27-1.02-1.84-.1-.26,.02-.55,.27-.65,.25-.1,.54,.02,.65,.27,.2,.5,.5,1.02,.92,1.65,.54,.8,1.17,1.53,1.87,2.17l.13,.11c.34,.31,.7,.63,.99,1.05,.27,.39,.52,.85,.74,1.39,.59,1.42,.93,3.06,1.04,5.02,.05,.84,.04,1.58-.02,2.28-.1,1.16-.44,2.28-.77,3.36v.03c-.54,1.76-1.18,3.61-2.29,5.18-.15,.21-.3,.43-.45,.65-1.66,2.43-3.55,5.18-10.54,5.99-.45,.05-.91,.08-1.36,.09-.07,0-.14,0-.22,0Z"/>
          <path class="cls-3" d="M55.68,16.51h-1.76c-.27,0-.5-.22-.5-.5s.22-.5,.5-.5h1.76c.27,0,.5,.22,.5,.5s-.22,.5-.5,.5Z"/>
          <path class="cls-3" d="M41.25,17.12h-2.39c-.27,0-.5-.22-.5-.5s.22-.5,.5-.5h2.39c.27,0,.5,.22,.5,.5s-.22,.5-.5,.5Z"/>
          <path class="cls-1" d="M48.02,16.53s3.77,1.26,1.84,4.01c-1.93,2.75-3.71-.03-4.32-1.49s1.32-2.89,2.48-2.51Z"/>
          <path class="cls-2" d="M48.16,22.21c-.07,0-.14,0-.21-.01-1.59-.17-2.6-2.3-2.87-2.95-.32-.77-.15-1.61,.48-2.3,.71-.78,1.8-1.15,2.61-.89,0,0,0,0,0,0,.09,.03,2.11,.72,2.62,2.27,.26,.79,.08,1.63-.53,2.5-.64,.92-1.35,1.38-2.1,1.38Zm-.55-5.24c-.42,0-.95,.25-1.31,.65-.21,.23-.53,.7-.3,1.23,.46,1.11,1.28,2.26,2.06,2.35,.45,.05,.92-.27,1.4-.95,.42-.6,.55-1.13,.4-1.61-.29-.89-1.53-1.48-1.99-1.63-.08-.03-.17-.04-.26-.04Z"/>
          <path class="cls-3" d="M48.22,22.27c-1.15,0-2.09-1.25-2.2-1.4-.14-.2-.12-.47,.04-.65,.17-.18,.44-.2,.64-.06,1.53,1.08,2.91-.16,2.97-.21,.16-.15,.4-.17,.58-.06,.19,.11,.28,.33,.24,.54-.1,.46-.99,1.42-2.01,1.8-.04,.02-.09,.03-.13,.03-.04,0-.08,0-.12,0Z"/>
          <path class="cls-3" d="M50,20.33s-1.7,1.59-3.59,.25c0,0,.92,1.26,1.88,1.19,.94-.35,1.65-1.22,1.7-1.44Z"/>
          <path class="cls-3" d="M48.15,31.7c-.05,0-.11,0-.17-.03-.26-.09-.39-.38-.3-.64,1.4-3.99,.05-9.75,.04-9.81-.06-.27,.1-.54,.37-.6,.27-.06,.53,.1,.6,.37,.06,.25,1.42,6.11-.07,10.38-.07,.21-.26,.33-.47,.33Z"/>
        </g>
        <g>
          <path class="cls-3" d="M25.32,52.58c-.05,0-.11,0-.16-.03-.26-.09-.39-.38-.3-.64,1.4-4.05,5.56-8.25,8.7-10.62,1.45-1.1,2.94-1.66,3-1.68,.26-.1,.54,.04,.64,.3,.09,.26-.04,.55-.29,.64-.01,0-1.42,.54-2.75,1.54-3.03,2.28-7.04,6.31-8.36,10.14-.07,.21-.26,.34-.47,.34Z"/>
          <path class="cls-3" d="M25.34,60.67c-.92,0-1.96-.63-2.66-1.33-1-1.01-1.44-2.21-1.21-3.29,.33-1.55,1.34-2.96,2.57-3.58,.98-.5,2.05-.52,3.11-.04,.85,.38,1.3,.89,1.34,1.53,.03,.47-.19,.9-.47,1.26,.35,.06,.64,.2,.87,.4,.54,.5,.47,1.18,.46,1.26,0,.07-.03,.14-.07,.2-.44,.71-1,1.14-1.68,1.28-1.12,.22-2.11-.49-2.15-.52-.22-.16-.27-.47-.11-.7,.16-.22,.47-.27,.69-.11,.01,0,.69,.49,1.38,.35,.36-.07,.68-.31,.95-.71,0-.08-.04-.21-.15-.31-.23-.21-.78-.23-1.5-.07-.24,.05-.48-.07-.57-.3-.09-.23,0-.49,.2-.61,.48-.3,1.18-.93,1.15-1.35-.02-.3-.48-.55-.76-.67-.79-.35-1.55-.35-2.26,.02-.96,.49-1.78,1.66-2.05,2.91-.23,1.06,.58,2.01,.94,2.37,.76,.76,1.61,1.1,2.07,1.04,.03-.04,.07-.16,.05-.39-.02-.28,.18-.52,.45-.54,.27-.02,.51,.18,.54,.45,.08,.96-.43,1.36-.74,1.44-.13,.03-.26,.04-.4,.04Z"/>
          <path class="cls-3" d="M39.93,72.56c-.22,0-.42-.15-.48-.37-.27-1.04,.38-2.32,.46-2.46l3.94-7.5c.1-.18,.29-.29,.5-.26,.53,.07,.83-.06,.89-.2,.06-.15-.04-.54-.6-.99-.95-.76-2.04-.28-2.24-.19l-7.16,5.48c-.22,.17-.53,.12-.69-.1-.17-.22-.12-.53,.1-.7l7.2-5.51s.04-.03,.06-.04c.07-.04,1.81-.97,3.36,.27,.83,.66,1.17,1.49,.9,2.16-.23,.55-.81,.84-1.58,.83l-3.79,7.22c-.15,.29-.52,1.17-.37,1.73,.07,.27-.09,.54-.35,.61-.04,.01-.09,.02-.13,.02Z"/>
          <path class="cls-3" d="M37.93,71.58c-1.7,0-3.02-.42-3.94-1.26-1.37-1.25-1.28-2.96-1.28-3.03,.02-.28,.25-.48,.52-.47,.27,.02,.48,.25,.46,.53,0,.06-.05,1.32,.97,2.24,1.04,.94,2.81,1.21,5.25,.81,.27-.04,.52,.14,.57,.41,.04,.27-.14,.53-.41,.57-.77,.13-1.49,.19-2.14,.19Z"/>
          <path class="cls-3" d="M39.33,74.05c-11.08,0-16.4-6.85-16.63-7.15-.17-.22-.12-.53,.09-.7,.22-.17,.53-.13,.69,.09,.05,.07,5.59,7.17,16.84,6.74,.28,0,.5,.21,.51,.48,.01,.28-.2,.51-.48,.52-.35,.01-.69,.02-1.03,.02Z"/>
          <path class="cls-3" d="M40.67,55.41c-6.94,0-11.11-3.21-11.3-3.36-.22-.17-.25-.48-.09-.7,.17-.22,.48-.26,.69-.09,.05,.04,4.84,3.71,12.51,3.07,.27-.02,.51,.18,.53,.46,.02,.28-.18,.52-.45,.54-.65,.05-1.29,.08-1.9,.08Z"/>
          <path class="cls-3" d="M22.6,66.17c-.08,0-.15-.02-.22-.05-.24-.13-.34-.43-.22-.67l7.7-15.24c.42-.82,1.17-1.11,1.55-1.15,.13-.01,.26,.02,.36,.1,.05,.04,5.35,4.15,11,1.77,.16-.07,.35-.05,.49,.06,.14,.11,.21,.28,.19,.46l-.83,7.09c-.03,.27-.28,.47-.55,.44-.27-.03-.47-.28-.43-.56l.74-6.27c-5.31,1.77-9.99-1.3-11.02-2.05-.17,.07-.44,.22-.61,.57l-7.7,15.24c-.09,.17-.26,.27-.44,.27Z"/>
          <path class="cls-3" d="M42.95,51.89c-.25,0-.46-.19-.49-.45-.01-.06-.25-1.04-2.7-1.96-.26-.1-.39-.38-.29-.64,.1-.26,.38-.39,.64-.29,3.14,1.18,3.33,2.65,3.34,2.81,.02,.28-.19,.51-.46,.53-.01,0-.02,0-.03,0Z"/>
          <path class="cls-3" d="M36.77,48.49s-.06,0-.09,0c-1.74-.31-4.74,0-4.77,0-.27,.03-.52-.17-.54-.44-.03-.27,.17-.52,.44-.55,.13-.01,3.17-.33,5.04,0,.27,.05,.45,.31,.4,.58-.04,.24-.25,.41-.49,.41Z"/>
          <path class="cls-3" d="M38.53,46.8s-5.32,1.65-1.15,3.13c0,0,2.44,1.27,3.03-1.74,0,0,.56-1.3-1.88-1.39Z"/>
          <path class="cls-3" d="M62.35,67.82s-.07,0-.11-.01c-.27-.06-.43-.33-.37-.6,3.09-13.67-3.91-26.49-3.98-26.62-.13-.24-.05-.55,.19-.68,.24-.13,.54-.05,.67,.19,.07,.13,7.26,13.27,4.08,27.33-.05,.23-.26,.39-.48,.39Z"/>
          <path class="cls-3" d="M33.04,48.34c-.08,0-.16-.02-.23-.06-.24-.13-.33-.43-.2-.68,1.81-3.39,3.68-5.44,3.76-5.53,.19-.2,.5-.21,.7-.03,.2,.19,.21,.5,.03,.71-.02,.02-1.87,2.05-3.61,5.32-.09,.17-.26,.26-.44,.26Z"/>
          <path class="cls-3" d="M64.8,62.25c-.11,0-.22,0-.33-.03-.27-.04-.45-.3-.41-.57,.04-.27,.3-.46,.57-.42,.72,.12,1.2-.51,1.75-1.55,.54-1.02,.89-2.15,1.02-3.27,.23-1.98-.19-4.09-1.24-6.28-.55-1.14-1.27-2.14-2.05-3.2-.39-.54-.79-1.09-1.17-1.66-.14-.22-.27-.45-.4-.68-.26-.46-.53-.94-.87-1.24-.21-.18-.23-.5-.05-.71,.18-.21,.49-.23,.7-.05,.47,.41,.78,.97,1.08,1.5,.13,.22,.24,.43,.37,.62,.36,.55,.76,1.1,1.14,1.62,.76,1.05,1.55,2.14,2.14,3.36,1.13,2.36,1.58,4.66,1.33,6.83-.15,1.27-.53,2.49-1.13,3.63-.37,.7-1.1,2.09-2.45,2.09Z"/>
        </g>
        <g>
          <path class="cls-3" d="M59.23,87.08c-3.35,0-6.1-1.69-6.95-2.88-1.3-1.82-1.34-8.4-1.34-9.14,0-.28,.22-.5,.5-.5s.5,.22,.5,.5c0,1.93,.21,7.24,1.15,8.56,1.17,1.63,6.49,4.31,11.55,.66,.22-.16,.53-.11,.69,.12,.16,.22,.11,.54-.12,.7-2.02,1.46-4.09,1.99-5.97,1.99Z"/>
          <path class="cls-3" d="M65.44,84.94c-.18,0-.33-.15-.33-.33v-2.36c0-.11,.06-.22,.15-.28,.1-.06,.22-.07,.32-.02,.02,.01,2.5,1.15,5.66-.13,.09-.91,.45-4.72,.49-6.52-.62-.21-2.43-.76-3.61-.37-.1,.03-.21,.02-.3-.05-.09-.06-.14-.16-.14-.27v-4.79l-2.82-.32c-.18-.02-.31-.19-.29-.37s.18-.31,.36-.29l3.11,.35c.17,.02,.29,.16,.29,.33v4.66c1.63-.28,3.74,.53,3.83,.56,.13,.05,.21,.17,.21,.31,0,1.93-.49,6.81-.51,7.02-.01,.12-.09,.23-.2,.27-2.72,1.17-4.97,.69-5.91,.38v1.88c0,.18-.15,.33-.33,.33Z"/>
          <path class="cls-3" d="M55.35,71.14s-.03,0-.05,0l-1.84-.28c-.15-.02-.27-.15-.28-.3,0-.07-.12-1.75,1.51-2.94,1.58-1.15,7.85,.5,8.56,.69,.18,.05,.28,.23,.23,.41-.05,.18-.23,.28-.4,.24-2.57-.69-7.01-1.52-8.01-.79-.98,.72-1.19,1.64-1.23,2.08l1.55,.24c.18,.03,.3,.2,.28,.38-.02,.17-.17,.28-.33,.28Z"/>
          <path class="cls-3" d="M49.69,75.78s-.02,0-.03,0c-.18-.02-.32-.18-.3-.36l.48-5.57c.01-.17,.16-.3,.33-.3h3.41c.18,0,.33,.15,.33,.33s-.15,.33-.33,.33h-3.1l-.45,5.27c-.01,.17-.16,.3-.33,.3Z"/>
          <path class="cls-3" d="M58.49,77.7c-3.07,0-4.73-1.38-5.05-1.67l-3.75,.13c-.08,0-.17-.07-.17-.16,0-.09,.07-.17,.16-.17l3.82-.13s.09,.02,.12,.05c.03,.03,3.4,3.41,10.36,.32,.02,0,.03-.01,.05-.01l2.14-.21v-.11c0-.09,.07-.17,.17-.17h1.33l.17-.99c.02-.09,.1-.15,.19-.14,.09,.02,.15,.1,.13,.19l-.19,1.13c-.01,.08-.08,.14-.16,.14h-1.31v.09c0,.09-.06,.16-.15,.17l-2.27,.22c-2.22,.98-4.08,1.32-5.61,1.32Z"/>
          <path class="cls-3" d="M59.38,74.75c-3.34,0-6.69-.48-7.41-1.41-.39-.5-.5-.93-.32-1.26,.35-.64,1.62-.55,1.87-.53,.14,.01,.24,.14,.22,.27s-.14,.24-.27,.22c-.48-.05-1.25,0-1.39,.27-.07,.13,.03,.39,.27,.71,1.23,1.58,11.53,1.69,13.78,.14,.49-.34,.56-.53,.54-.57-.09-.28-1.49-.48-2.94-.42-.08,0-.16-.04-.21-.1-.05-.07-.06-.16-.03-.23,0,0,.16-.47-.11-.83-.28-.38-.95-.54-1.94-.48-.13,0-.25-.1-.26-.23,0-.14,.09-.26,.23-.27,1.18-.08,1.98,.15,2.37,.68,.24,.33,.27,.69,.24,.95,1.05-.02,2.88,.05,3.12,.77,.17,.52-.51,.99-.73,1.14-1.14,.78-4.09,1.16-7.04,1.16Z"/>
          <path class="cls-3" d="M58.74,69.18c-.11,0-3.23-.22-3.8,1.34-.57,1.56,6.03,1.81,7.03,1.12s.39-2.28-3.23-2.46Z"/>
          <g>
            <path class="cls-3" d="M71.95,75.98c-.19-.16,.22-.58-.03-.62-.62-.11-3.16-.34-3.78-.45-.61-.11,.11,.87-.52,.88-.68,0-.47-.14-1.12,.07-.36,.11-.38,.23-.85,.34-.03,.17-.61-.15-.74-.04-.08,.07-.55,.16-.65,.16-.54,.03-1.47,.58-2.01,.63-2.76,.24-4.24,1.02-6.86,.14-1.25-.42-1.69-1.54-3.76-1.05,.16,.96,.27,1.93,.33,2.91,.06,1.05,.07,2.12,.3,3.15,.22,1.03,.69,2.05,1.51,2.71,.73,.58,1.65,.83,2.56,1.04,.69,.16,1.39,.31,2.09,.31,1.37,0,2.78,.05,4.06-.47,.5-.2,1.05-.4,1.54-.6,.2-.08,.49-.38,.64-.53,.96,.07,.63-1.33,.93-1.73-.57-.99,.11-.42,.49-.43s.77,.08,1.16,.15c1.56,.25,2.18,.55,3.56-.22,.23-.13,.54-.14,.69-.36,.17-.24,.2-1.27,.25-1.56,.16-.97,.04-2.01,.2-2.98,.09-.52,.16-1.21,0-1.42Zm-3.03,5.37c-.41,.24-1.72-.21-2.24,0s-.35-4.63,0-5.02,1.85-.24,2.24,0,.41,4.78,0,5.02Z"/>
            <path class="cls-3" d="M51.66,76.04s.05,0,.08,0c0-.02,0-.05,0-.07l-.07,.08Z"/>
          </g>
        </g>
        <g>
          <path class="cls-3" d="M28.7,75.47c-2.98,0-5.16-.23-7.45-.48-2.56-.27-5.2-.55-9.28-.55-8.27,0-11.29,.97-11.32,.98-.26,.09-.54-.06-.62-.32-.09-.26,.05-.54,.31-.63,.12-.04,3.15-1.03,11.63-1.03,4.13,0,6.8,.28,9.39,.56,2.69,.29,5.23,.56,9.13,.44,7.54-.22,14.63,.02,14.7,.03,.27,0,.49,.24,.48,.52,0,.28-.23,.49-.51,.48-.07,0-7.13-.25-14.64-.03-.64,.02-1.24,.03-1.82,.03Z"/>
          <path class="cls-3" d="M24.1,76.73s-.03,0-.05,0c-10.79-1.05-21.04-1.76-21.14-1.77-.27-.02-.48-.26-.46-.53,.02-.28,.26-.48,.53-.46,.1,0,10.36,.72,21.17,1.77,.27,.03,.47,.27,.45,.55-.02,.26-.24,.45-.49,.45Z"/>
          <path class="cls-3" d="M77.33,76.51c-.27,0-.49-.21-.49-.49,0-.28,.21-.51,.48-.51l3.48-.1-5.19-.12c-.27,0-.49-.24-.48-.51s.24-.49,.51-.49l23.88,.56c.27,0,.48,.23,.48,.5s-.21,.49-.48,.5l-22.17,.67s-.01,0-.02,0Z"/>
          <path class="cls-3" d="M32.93,92.66c-.06,0-.12-.02-.18-.05-.02-.02-2.5-1.62-5.62-2.05-3.31-.46-7.01-4.15-7.17-4.31-.08-.08-.12-.21-.09-.32,.46-1.73,7.37-6.82,8.24-7.45,.18-.16,1.15-.87,4.18-.87,.5,0,.95,.11,1.44,.23,.43,.1,.88,.21,1.41,.26,.3,.03,.62,.02,.97,0,.43-.01,.88-.03,1.29,.03,.37,.05,.69,.19,.99,.32,.22,.09,.43,.18,.64,.23,.26,.06,.53,.06,.8,.06,.35,0,.69,0,1,.12,.71,.29,1.23,.74,1.38,1.2,.12,.38,.21,.78-.02,1.09-.33,.45-1.03,.45-2.89,.44-.87,0-1.95,0-3.33,.03-2.62-.16-6.06-.77-7.92-1.12,1.18,.89,3.13,2.17,4.67,2.26,2.5,.15,7.25,1.13,7.45,1.17,.1,.02,.18,.09,.23,.18s.05,.2,0,.29c-.9,1.89-6.99,7.93-7.24,8.18-.06,.06-.15,.1-.23,.1Zm-12.34-6.73c.73,.7,3.91,3.6,6.64,3.97,2.75,.38,4.96,1.59,5.66,2.01,.97-.97,5.48-5.51,6.71-7.43-1.27-.25-4.9-.95-6.91-1.07-2.26-.13-5.12-2.43-5.91-3.09-2.62,2.01-5.65,4.56-6.19,5.62Zm6.99-6.22c1.6,.32,5.53,1.05,8.41,1.23,1.36-.04,2.45-.03,3.32-.03,1.19,0,2.23,.01,2.35-.16,0,0,.05-.09-.08-.49-.07-.22-.41-.55-1-.79-.19-.08-.46-.07-.75-.07-.29,0-.62,0-.94-.07-.27-.06-.51-.16-.75-.26-.28-.12-.54-.23-.83-.27-.35-.05-.77-.04-1.18-.03-.35,.01-.71,.02-1.05,0-.58-.05-1.08-.17-1.51-.27-.46-.11-.86-.21-1.28-.21-2.92,0-3.74,.7-3.74,.71,0,0-.02,.02-.03,.03-.3,.22-.61,.45-.94,.7Z"/>
        </g>
      </g>
      <rect class="cls-4" x=".49" width="99.01" height="100"/>
    </g>
  </g>
</svg>