<?xml version="1.0" encoding="UTF-8"?>
<svg id="Layer_2" data-name="Layer 2" xmlns="http://www.w3.org/2000/svg" viewBox="0 0 249.52 249.52">
  <defs>
    <style>
      .cls-1 {
        fill: #fff;
      }

      .cls-2 {
        fill: none;
      }
    </style>
  </defs>
  <g id="Layer_1-2" data-name="Layer 1">
    <g>
      <g>
        <path class="cls-1" d="M140.17,33.6c-.1,0-.2-.01-.3-.04-.66-.17-1.06-.85-.9-1.51,.68-2.74,1.95-7.85,.29-10.59-.25-.42-.65-.88-1.04-.9-.66,0-1.7,1.01-2.58,2.46-.09,.84-.46,1.74-.82,2.62-.3,.74-.62,1.5-.67,2.02-.05,.41-.29,.78-.66,.97-.37,.19-.8,.19-1.16-.01-3.41-1.88-7.27-3.09-11.16-3.51-1.3-.14-2.61-.13-3.9,.04-2.14,.27-7.16,.91-9.21,2.38l-.45,.32c-.43,.31-.52,.37-1.1,.89-.51,.46-1.29,.41-1.74-.11-.45-.52-.41-1.3,.1-1.76,.66-.59,.82-.71,1.32-1.07l.44-.31c2.24-1.61,6.29-2.31,10.33-2.83,1.48-.19,2.98-.2,4.47-.04,3.69,.39,7.36,1.45,10.7,3.08,.13-.34,.27-.69,.41-1.02,.31-.75,.66-1.6,.66-2.04,0-.22,.06-.43,.17-.62,.84-1.46,2.58-3.93,4.82-3.96,.01,0,.03,0,.04,0,.86,0,2.08,.37,3.13,2.09,2.21,3.63,.83,9.18,0,12.5-.14,.57-.64,.94-1.2,.94Z"/>
        <path class="cls-1" d="M95.48,34.17c-.61,0-1.15-.46-1.22-1.09-.08-.63-.49-1.22-.98-1.86-.76-1-1.36-1.95-1.86-2.91-.47-.9-1.56-3.02-.75-4.91,.19-.44,.48-.83,.85-1.15,1.07-.9,2.63-.83,3.48-.79,1.13,.06,2.2,.32,3.17,.78,1.51,.71,2.85,1.93,3.87,3.51,.08,.12,.19,.29,.32,.48,.78,1.16,1.44,2.17,1.66,2.81,.22,.65-.12,1.36-.76,1.59-.64,.23-1.35-.12-1.57-.77-.13-.39-1.04-1.73-1.38-2.23-.14-.21-.26-.39-.34-.52-.77-1.2-1.76-2.1-2.85-2.62-.67-.32-1.45-.51-2.25-.55-.36-.02-1.44-.07-1.77,.2-.08,.07-.14,.15-.18,.23-.34,.79,.4,2.22,.67,2.76,.43,.83,.96,1.66,1.63,2.55,.66,.87,1.31,1.82,1.47,3.07,.08,.68-.39,1.31-1.07,1.39-.05,0-.1,0-.16,0Z"/>
        <path class="cls-1" d="M117.68,108.06c-4.6,0-9.17-.94-13.61-2.8-3.55-1.49-7.07-3.59-10.45-6.25-1.23-.97-2.49-2.05-3.73-3.2l-.07-.07c-1.68-1.56-3.42-3.18-4.87-5.05-1.05-1.35-1.94-2.98-2.73-4.98-1.8-4.57-2.76-9.42-2.77-14.03,0-2.96,.54-5.98,1.1-8.82,.58-2.97,1.37-5.87,2.35-8.6,.87-2.44,1.79-4.54,2.81-6.44,.72-1.33,1.71-3.15,3.11-4.42,2.86-2.61,3.85-6.9,3.86-6.94,.15-.67,.81-1.1,1.48-.94,.66,.15,1.08,.82,.93,1.49-.05,.21-1.16,5.09-4.62,8.24-1.09,.99-1.96,2.6-2.59,3.77-.97,1.78-1.83,3.77-2.66,6.08-.93,2.62-1.69,5.4-2.25,8.25-.53,2.72-1.06,5.6-1.05,8.32,.01,4.3,.91,8.83,2.59,13.11,.7,1.77,1.48,3.2,2.38,4.36,1.33,1.71,2.99,3.26,4.6,4.75l.07,.07c1.19,1.1,2.39,2.13,3.57,3.06,3.21,2.52,6.53,4.51,9.88,5.91,4.3,1.8,8.73,2.68,13.16,2.61,1.04-.02,2.1-.09,3.15-.21,16.33-1.88,20.5-7.98,24.54-13.88,.38-.56,.76-1.11,1.14-1.65,2.56-3.62,4.08-8,5.35-12.2l.02-.08c.78-2.58,1.58-5.25,1.82-7.89,.15-1.61,.16-3.34,.05-5.31-.26-4.61-1.04-8.43-2.4-11.7-.48-1.16-1.02-2.16-1.59-2.98-.58-.82-1.32-1.49-2.11-2.2l-.32-.29c-1.9-1.72-3.6-3.69-5.07-5.85-1.17-1.72-1.98-3.18-2.55-4.58-.26-.64,.04-1.37,.67-1.63,.63-.26,1.35,.04,1.61,.68,.5,1.24,1.24,2.55,2.3,4.12,1.35,1.99,2.93,3.81,4.68,5.4l.31,.28c.85,.77,1.74,1.57,2.48,2.62,.68,.96,1.3,2.13,1.86,3.46,1.47,3.53,2.31,7.63,2.59,12.52,.12,2.09,.1,3.95-.06,5.68-.26,2.89-1.1,5.68-1.92,8.39l-.02,.08c-1.32,4.4-2.93,9.01-5.7,12.92-.38,.53-.75,1.07-1.12,1.62-4.15,6.06-8.85,12.94-26.3,14.94-1.13,.13-2.27,.2-3.39,.22-.18,0-.36,0-.54,0Z"/>
        <path class="cls-1" d="M138.94,41.2h-4.39c-.68,0-1.24-.56-1.24-1.25s.55-1.25,1.24-1.25h4.39c.68,0,1.24,.56,1.24,1.25s-.55,1.25-1.24,1.25Z"/>
        <path class="cls-1" d="M102.92,42.72h-5.95c-.68,0-1.24-.56-1.24-1.25s.55-1.25,1.24-1.25h5.95c.68,0,1.24,.56,1.24,1.25s-.55,1.25-1.24,1.25Z"/>
        <path class="cls-1" d="M119.83,41.26s9.41,3.14,4.58,9.99c-4.82,6.86-9.25-.07-10.77-3.72s3.3-7.22,6.19-6.27Z"/>
        <path class="cls-1" d="M120.17,55.41c-.17,0-.34,0-.52-.03-3.96-.44-6.48-5.75-7.15-7.37-.8-1.92-.36-4.01,1.2-5.73,1.76-1.94,4.5-2.87,6.51-2.21,0,0,0,0,0,0,.21,.07,5.27,1.8,6.53,5.66,.64,1.98,.2,4.08-1.32,6.24-1.61,2.28-3.37,3.44-5.25,3.44Zm-1.37-13.06c-1.05,0-2.37,.63-3.27,1.62-.52,.57-1.31,1.74-.75,3.08,1.16,2.76,3.2,5.64,5.15,5.86,1.12,.12,2.29-.68,3.48-2.37,1.05-1.5,1.38-2.81,.99-4.01-.71-2.21-3.81-3.69-4.95-4.08-.2-.06-.42-.1-.65-.1Z"/>
        <path class="cls-1" d="M120.31,55.57c-2.87,0-5.23-3.12-5.49-3.48-.36-.49-.31-1.17,.11-1.61,.42-.44,1.1-.5,1.59-.15,3.82,2.7,7.26-.39,7.41-.52,.4-.37,.99-.43,1.45-.16,.47,.27,.7,.82,.59,1.35-.25,1.15-2.47,3.54-5.03,4.49-.11,.04-.22,.06-.33,.07-.1,0-.2,.01-.3,.01Z"/>
        <path class="cls-1" d="M124.76,50.72s-4.23,3.96-8.95,.63c0,0,2.29,3.15,4.7,2.97,2.35-.88,4.13-3.05,4.25-3.59Z"/>
        <path class="cls-1" d="M120.15,79.1c-.14,0-.28-.02-.41-.07-.64-.23-.98-.94-.75-1.59,3.48-9.94,.13-24.33,.1-24.48-.16-.67,.25-1.34,.91-1.5,.66-.16,1.33,.25,1.49,.92,.15,.62,3.55,15.26-.17,25.89-.18,.51-.66,.83-1.16,.83Z"/>
      </g>
      <g>
        <path class="cls-1" d="M63.18,131.2c-.13,0-.27-.02-.41-.07-.64-.23-.98-.94-.76-1.59,3.48-10.1,13.88-20.58,21.72-26.49,3.63-2.74,7.33-4.13,7.49-4.19,.64-.24,1.35,.09,1.59,.74,.24,.65-.09,1.36-.73,1.6-.03,.01-3.53,1.34-6.87,3.85-7.56,5.7-17.56,15.75-20.86,25.31-.18,.51-.66,.84-1.17,.84Z"/>
        <path class="cls-1" d="M63.23,151.37c-2.3,0-4.89-1.57-6.63-3.32-2.5-2.51-3.6-5.5-3.01-8.21,.83-3.86,3.35-7.37,6.42-8.94,2.44-1.25,5.13-1.29,7.77-.11,2.12,.95,3.25,2.23,3.35,3.81,.07,1.17-.47,2.25-1.18,3.15,.88,.15,1.61,.49,2.17,1.01,1.35,1.24,1.17,2.95,1.14,3.14-.02,.18-.08,.34-.17,.49-1.09,1.78-2.5,2.85-4.19,3.19-2.8,.55-5.26-1.22-5.36-1.29-.55-.4-.67-1.19-.27-1.74,.4-.56,1.17-.68,1.72-.28,.03,.02,1.73,1.21,3.45,.86,.9-.18,1.69-.78,2.37-1.77-.02-.21-.1-.53-.37-.77-.58-.52-1.94-.58-3.74-.17-.59,.13-1.19-.18-1.42-.75-.23-.57-.01-1.22,.5-1.53,1.2-.74,2.94-2.33,2.87-3.37-.05-.75-1.2-1.38-1.89-1.68-1.97-.88-3.87-.86-5.65,.05-2.39,1.23-4.45,4.14-5.12,7.25-.57,2.64,1.45,5.01,2.34,5.91,1.9,1.91,4.02,2.73,5.15,2.59,.07-.1,.17-.4,.12-.98-.06-.69,.44-1.29,1.12-1.35,.68-.06,1.28,.45,1.34,1.13,.21,2.41-1.06,3.4-1.85,3.6-.32,.07-.65,.11-.99,.11Z"/>
        <path class="cls-1" d="M99.64,181.04c-.55,0-1.05-.37-1.19-.93-.69-2.6,.95-5.78,1.14-6.13l9.83-18.72c.24-.46,.74-.72,1.24-.65,1.32,.17,2.08-.15,2.23-.51,.16-.38-.11-1.35-1.49-2.46-2.38-1.9-5.1-.71-5.59-.47l-17.87,13.67c-.54,.42-1.32,.31-1.73-.24-.41-.55-.3-1.33,.24-1.75l17.96-13.74s.1-.07,.16-.1c.18-.1,4.51-2.42,8.37,.67,2.07,1.65,2.92,3.71,2.23,5.38-.57,1.36-2.01,2.09-3.94,2.08l-9.46,18.01c-.39,.73-1.3,2.92-.93,4.32,.18,.67-.22,1.35-.88,1.53-.11,.03-.21,.04-.32,.04Z"/>
        <path class="cls-1" d="M94.63,178.61c-4.25,0-7.55-1.05-9.83-3.14-3.42-3.13-3.2-7.39-3.19-7.57,.04-.69,.63-1.2,1.31-1.17,.68,.04,1.2,.63,1.16,1.32,0,.14-.14,3.29,2.41,5.59,2.59,2.35,7,3.03,13.1,2.03,.68-.1,1.31,.35,1.42,1.03,.11,.68-.35,1.32-1.02,1.43-1.92,.31-3.71,.47-5.35,.47Z"/>
        <path class="cls-1" d="M98.15,184.78c-27.65,0-40.92-17.1-41.49-17.85-.41-.55-.31-1.33,.23-1.75,.54-.42,1.32-.32,1.73,.23,.14,.18,13.95,17.88,42.01,16.83,.69-.01,1.26,.51,1.28,1.2,.03,.69-.51,1.27-1.19,1.29-.87,.03-1.73,.05-2.58,.05Z"/>
        <path class="cls-1" d="M101.48,138.27c-17.31,0-27.72-8.01-28.19-8.39-.54-.42-.63-1.21-.22-1.75,.42-.54,1.19-.64,1.73-.22,.12,.09,12.07,9.26,31.21,7.67,.68-.05,1.28,.46,1.33,1.14,.06,.69-.45,1.29-1.13,1.35-1.63,.14-3.21,.2-4.74,.2Z"/>
        <path class="cls-1" d="M56.38,165.1c-.19,0-.38-.04-.56-.14-.61-.31-.85-1.06-.54-1.68l19.22-38.02c1.04-2.05,2.92-2.77,3.87-2.87,.32-.03,.64,.06,.89,.26,.13,.1,13.34,10.37,27.44,4.41,.4-.17,.87-.11,1.22,.15,.35,.27,.53,.7,.48,1.14l-2.08,17.68c-.08,.68-.69,1.17-1.37,1.09-.68-.08-1.16-.7-1.08-1.39l1.84-15.65c-13.25,4.43-24.93-3.26-27.48-5.11-.42,.16-1.09,.54-1.53,1.41l-19.22,38.02c-.22,.43-.65,.68-1.1,.68Z"/>
        <path class="cls-1" d="M107.18,129.47c-.63,0-1.16-.48-1.23-1.11-.03-.14-.63-2.61-6.73-4.9-.64-.24-.97-.96-.73-1.6,.24-.65,.95-.98,1.59-.73,7.84,2.94,8.31,6.61,8.33,7.02,.05,.69-.47,1.28-1.15,1.33-.03,0-.06,0-.09,0Z"/>
        <path class="cls-1" d="M91.75,120.99c-.07,0-.15,0-.22-.02-4.33-.78-11.82,0-11.89,.01-.68,.07-1.29-.42-1.36-1.11-.07-.69,.42-1.3,1.1-1.37,.32-.03,7.91-.83,12.59,.01,.67,.12,1.12,.77,1,1.45-.11,.6-.63,1.03-1.21,1.03Z"/>
        <path class="cls-1" d="M96.14,116.78s-13.27,4.12-2.86,7.81c0,0,6.08,3.18,7.55-4.34,0,0,1.39-3.25-4.69-3.47Z"/>
        <path class="cls-1" d="M155.57,169.23c-.09,0-.18-.01-.28-.03-.67-.15-1.08-.82-.93-1.49,7.72-34.12-9.75-66.1-9.93-66.42-.33-.6-.12-1.36,.47-1.7,.6-.34,1.35-.12,1.68,.48,.18,.33,18.11,33.12,10.18,68.2-.13,.58-.64,.97-1.2,.97Z"/>
        <path class="cls-1" d="M82.45,120.63c-.2,0-.4-.05-.59-.15-.6-.33-.82-1.08-.5-1.69,4.52-8.46,9.18-13.58,9.38-13.8,.46-.51,1.24-.54,1.75-.07,.5,.47,.53,1.26,.07,1.76-.05,.05-4.66,5.12-9.02,13.29-.22,.42-.65,.66-1.09,.66Z"/>
        <path class="cls-1" d="M161.68,155.33c-.26,0-.54-.02-.82-.07-.67-.11-1.13-.75-1.03-1.43,.11-.68,.74-1.14,1.41-1.04,1.79,.29,3-1.26,4.37-3.86,1.34-2.53,2.22-5.36,2.54-8.16,.57-4.94-.47-10.21-3.09-15.68-1.36-2.84-3.18-5.34-5.11-7.99-.98-1.34-1.98-2.73-2.92-4.15-.35-.54-.68-1.13-1-1.69-.65-1.15-1.32-2.35-2.18-3.1-.51-.45-.57-1.24-.12-1.76,.45-.52,1.23-.57,1.74-.12,1.17,1.03,1.95,2.41,2.7,3.75,.31,.55,.61,1.08,.91,1.55,.9,1.37,1.89,2.73,2.85,4.05,1.91,2.62,3.88,5.33,5.34,8.38,2.83,5.9,3.95,11.64,3.32,17.05-.36,3.16-1.31,6.2-2.82,9.05-.92,1.74-2.75,5.22-6.12,5.22Z"/>
      </g>
      <g>
        <path class="cls-1" d="M147.8,217.29c-8.35,0-15.23-4.22-17.35-7.18-3.24-4.53-3.33-20.96-3.33-22.81,0-.69,.55-1.25,1.24-1.25s1.24,.56,1.24,1.25c0,4.82,.52,18.06,2.87,21.35,2.91,4.07,16.19,10.75,28.81,1.64,.56-.4,1.33-.27,1.72,.29,.4,.56,.27,1.34-.29,1.74-5.04,3.64-10.2,4.97-14.9,4.97Z"/>
        <path class="cls-1" d="M163.28,211.95c-.45,0-.82-.37-.82-.83v-5.89c0-.29,.14-.55,.38-.7,.24-.15,.54-.17,.79-.05,.06,.03,6.23,2.86,14.13-.34,.22-2.27,1.13-11.77,1.21-16.26-1.54-.52-6.07-1.89-9.01-.92-.25,.08-.53,.04-.74-.12-.21-.16-.34-.41-.34-.67v-11.94l-7.03-.8c-.45-.05-.78-.46-.73-.92s.46-.78,.91-.73l7.76,.88c.42,.05,.73,.4,.73,.83v11.63c4.05-.71,9.33,1.31,9.57,1.41,.32,.12,.53,.43,.53,.78,0,4.8-1.22,16.99-1.28,17.51-.03,.3-.22,.56-.5,.68-6.8,2.92-12.41,1.72-14.75,.95v4.69c0,.46-.37,.83-.82,.83Z"/>
        <path class="cls-1" d="M138.1,177.51s-.08,0-.13,0l-4.58-.71c-.38-.06-.66-.37-.7-.75-.01-.18-.31-4.36,3.76-7.33,3.94-2.88,19.59,1.24,21.37,1.72,.44,.12,.7,.57,.58,1.02-.12,.44-.57,.71-1.01,.59-6.4-1.73-17.49-3.8-19.98-1.98-2.46,1.8-2.97,4.09-3.06,5.2l3.87,.6c.45,.07,.76,.49,.69,.95-.06,.41-.41,.71-.81,.71Z"/>
        <path class="cls-1" d="M123.98,189.09s-.05,0-.07,0c-.45-.04-.79-.44-.75-.9l1.19-13.91c.04-.43,.39-.76,.82-.76h8.5c.45,0,.82,.37,.82,.83s-.37,.83-.82,.83h-7.74l-1.13,13.15c-.04,.43-.4,.76-.82,.76Z"/>
        <path class="cls-1" d="M145.95,193.89c-7.65,0-11.81-3.44-12.6-4.17l-9.36,.32c-.2,.01-.42-.17-.43-.4,0-.23,.17-.42,.4-.43l9.53-.32c.11,0,.23,.04,.31,.13,.08,.09,8.47,8.52,25.86,.79,.04-.02,.08-.03,.13-.03l5.35-.53v-.27c0-.23,.18-.42,.41-.42h3.33l.42-2.46c.04-.23,.25-.38,.48-.34,.22,.04,.37,.25,.34,.48l-.48,2.81c-.03,.2-.21,.35-.41,.35h-3.26v.23c0,.21-.16,.39-.37,.41l-5.66,.56c-5.53,2.45-10.19,3.3-13.99,3.3Z"/>
        <path class="cls-1" d="M148.17,186.53c-8.35,0-16.69-1.21-18.48-3.51-.98-1.26-1.24-2.32-.79-3.14,.87-1.61,4.05-1.38,4.67-1.32,.34,.03,.59,.34,.55,.68s-.34,.59-.67,.56c-1.19-.11-3.12,.02-3.47,.67-.18,.33,.07,.98,.68,1.77,3.06,3.94,28.77,4.21,34.39,.35,1.22-.84,1.39-1.31,1.35-1.42-.23-.69-3.73-1.19-7.34-1.05-.2,.01-.4-.09-.52-.26-.12-.17-.15-.39-.08-.58,0,0,.4-1.18-.26-2.07-.7-.94-2.38-1.35-4.84-1.19-.33,.02-.63-.24-.66-.58-.02-.34,.24-.64,.58-.66,2.95-.2,4.95,.38,5.92,1.69,.6,.82,.67,1.73,.61,2.38,2.62-.04,7.19,.13,7.78,1.93,.42,1.3-1.28,2.46-1.83,2.85-2.85,1.95-10.21,2.89-17.57,2.89Z"/>
        <path class="cls-1" d="M146.58,172.61c-.28-.01-8.06-.54-9.49,3.35-1.43,3.89,15.04,4.52,17.55,2.8,2.51-1.72,.98-5.7-8.06-6.15Z"/>
        <g>
          <path class="cls-1" d="M179.52,189.58c-.49-.4,.55-1.43-.07-1.55-1.54-.28-7.89-.85-9.43-1.12-1.53-.28,.27,2.18-1.29,2.19-1.7,0-1.17-.35-2.8,.17-.89,.28-.95,.56-2.13,.86-.08,.43-1.51-.38-1.84-.09-.19,.17-1.38,.39-1.63,.4-1.35,.07-3.66,1.45-5.01,1.57-6.88,.59-10.57,2.54-17.12,.34-3.12-1.05-4.22-3.84-9.39-2.63,.39,2.4,.67,4.83,.82,7.26,.16,2.63,.18,5.29,.74,7.86,.56,2.57,1.72,5.11,3.77,6.75,1.81,1.45,4.13,2.07,6.38,2.59,1.72,.4,3.46,.76,5.22,.77,3.42,.02,6.95,.13,10.12-1.16,1.24-.5,2.61-1,3.85-1.51,.5-.2,1.22-.95,1.6-1.33,2.39,.17,1.57-3.33,2.33-4.32-1.43-2.47,.26-1.05,1.23-1.08s1.93,.21,2.89,.37c3.89,.63,5.44,1.38,8.88-.55,.57-.32,1.35-.36,1.73-.9,.42-.61,.51-3.17,.63-3.9,.4-2.42,.1-5.02,.5-7.45,.22-1.31,.4-3.02,.01-3.54Zm-7.57,13.39c-1.02,.59-4.28-.53-5.58,0-1.3,.53-.88-11.55,0-12.53s4.6-.59,5.58,0c.98,.59,1.02,11.94,0,12.53Z"/>
          <path class="cls-1" d="M128.91,189.74c.06-.01,.13,0,.19-.01,0-.06-.02-.12-.02-.18l-.17,.19Z"/>
        </g>
      </g>
      <g>
        <path class="cls-1" d="M71.61,188.32c-7.44,0-12.88-.58-18.58-1.19-6.38-.68-12.99-1.38-23.17-1.38-20.64,0-28.17,2.41-28.24,2.44-.65,.21-1.35-.14-1.56-.79-.21-.65,.13-1.36,.78-1.57,.31-.1,7.87-2.57,29.02-2.57,10.31,0,16.98,.71,23.42,1.4,6.71,.71,13.05,1.39,22.78,1.11,18.82-.55,36.51,.06,36.69,.07,.68,.02,1.21,.6,1.19,1.29-.02,.69-.57,1.22-1.28,1.2-.17,0-17.8-.62-36.53-.07-1.6,.05-3.1,.07-4.53,.07Z"/>
        <path class="cls-1" d="M60.14,191.45s-.08,0-.12,0c-26.92-2.61-52.49-4.39-52.75-4.41-.68-.05-1.19-.64-1.15-1.33,.05-.69,.64-1.2,1.32-1.16,.26,.02,25.86,1.81,52.81,4.42,.68,.07,1.18,.68,1.11,1.36-.06,.65-.6,1.13-1.23,1.13Z"/>
        <path class="cls-1" d="M192.96,190.9c-.67,0-1.21-.53-1.23-1.21-.02-.69,.52-1.26,1.2-1.28l8.69-.26-12.94-.3c-.68-.02-1.22-.59-1.21-1.28s.59-1.23,1.26-1.22l59.6,1.39c.67,.02,1.2,.57,1.21,1.24s-.53,1.23-1.2,1.25l-55.33,1.67s-.03,0-.04,0Z"/>
        <path class="cls-1" d="M82.18,231.21c-.15,0-.31-.04-.45-.13-.06-.04-6.23-4.04-14.01-5.11-8.25-1.14-17.49-10.36-17.88-10.75-.21-.21-.29-.52-.21-.8,1.14-4.31,18.4-17.02,20.55-18.6,.44-.39,2.86-2.18,10.42-2.18,1.25,0,2.38,.27,3.58,.56,1.07,.26,2.19,.53,3.52,.64,.74,.06,1.56,.04,2.43,.01,1.08-.03,2.2-.07,3.22,.08,.93,.13,1.71,.47,2.47,.79,.55,.23,1.07,.45,1.59,.57,.64,.14,1.33,.14,2,.14,.88,0,1.72,0,2.48,.3,1.78,.72,3.07,1.84,3.44,3,.31,.96,.51,1.95-.04,2.72-.81,1.12-2.56,1.11-7.21,1.09-2.16-.01-4.86-.02-8.3,.07-6.53-.4-15.12-1.91-19.76-2.8,2.94,2.21,7.81,5.42,11.65,5.65,6.23,.37,18.09,2.82,18.59,2.93,.25,.05,.46,.22,.57,.45s.11,.5,0,.73c-2.24,4.71-17.43,19.78-18.08,20.42-.16,.16-.37,.24-.58,.24Zm-30.8-16.8c1.82,1.74,9.75,8.97,16.56,9.91,6.86,.95,12.38,3.97,14.12,5.01,2.42-2.41,13.67-13.76,16.75-18.55-3.16-.63-12.23-2.37-17.24-2.67-5.63-.33-12.77-6.06-14.74-7.72-6.54,5.03-14.11,11.37-15.45,14.02Zm17.44-15.53c3.98,.79,13.81,2.62,20.98,3.06,3.4-.1,6.11-.08,8.28-.07,2.98,.01,5.56,.03,5.88-.41,.01-.02,.13-.22-.19-1.22-.18-.56-1.02-1.38-2.48-1.97-.47-.19-1.15-.18-1.87-.18-.72,0-1.54,0-2.35-.18-.66-.15-1.28-.41-1.88-.66-.7-.29-1.35-.57-2.07-.67-.88-.13-1.92-.1-2.94-.06-.88,.03-1.78,.05-2.62-.02-1.46-.12-2.68-.42-3.76-.68-1.15-.28-2.15-.52-3.2-.52-7.3,0-9.32,1.75-9.34,1.77-.02,.02-.06,.05-.08,.07-.74,.54-1.53,1.13-2.35,1.74Z"/>
      </g>
      <rect class="cls-2" x="1.23" width="247.05" height="249.52"/>
    </g>
  </g>
</svg>