<?xml version="1.0" encoding="UTF-8"?>
<svg id="Layer_2" data-name="Layer 2" xmlns="http://www.w3.org/2000/svg" viewBox="0 0 22.86 22.86">
  <defs>
    <style>
      .cls-1 {
        fill: #603d2f;
      }
    </style>
  </defs>
  <g id="GNB_2DEPTH">
    <path class="cls-1" d="M21.56,18.33c1.33,1.34,1.7,3.16,.81,4.05-.88,.88-2.71,.52-4.04-.82l-2.44-2.43-4.46-4.47-6.9,6.9c-1.34,1.34-3.16,1.7-4.05,.82-.88-.89-.52-2.71,.82-4.05l6.9-6.9L1.3,4.53C-.04,3.2-.4,1.37,.48,.49,1.37-.4,3.19-.03,4.53,1.3l6.9,6.9L18.33,1.3c1.33-1.33,3.16-1.7,4.04-.81,.89,.88,.52,2.71-.81,4.04l-6.9,6.9,4.47,4.47,2.43,2.43Z"/>
  </g>
</svg>